<svg width="941" height="396" viewBox="0 0 941 396" fill="none" xmlns="http://www.w3.org/2000/svg"><path d="M753.8 395.1C728 395.1 705.4 388.4 686.4 375.1C673.8 366.7 662.8 355 653.6 340.2C651.1 336 645.4 335.1 641.7 338.3C640.6 339.1 639.6 340 638.5 340.9C638 341.3 637.6 341.6 637.1 342C632.4 345.4 625.6 350.1 616.2 356.2C615.4 356.7 614.6 357.2 613.8 357.7C604.4 363.1 596.3 367.4 589.7 370.6C578.4 376.6 568.8 380.6 560.4 383.1C554.2 385 547.8 386.7 541.3 388C531.2 390.2 521.1 391.4 511.4 391.4C504.3 391.4 497.4 390.7 490.8 389.3C490 389.1 489.2 389 488.4 388.7C474.6 385 463.2 377.5 455 367C455 367 455 367 455 367C452.1 363.7 447.3 363.1 443.8 365.8C441.6 367.4 439.4 368.9 437.2 370.4C437.1 370.4 437 370.5 436.9 370.5C420.9 380.5 404.8 387.1 389 389.9C383.6 390.9 377.3 391.4 369.1 391.4C359.8 391.4 351.1 390.5 343.2 388.9C342.9 388.8 342.5 388.7 342.2 388.6C332.7 386.3 323.2 383.3 313.8 379.7C312.8 379.3 311.9 378.9 310.9 378.4C300.5 373.5 290.9 368.2 282.4 362.6C281.7 362.2 281 361.7 280.4 361.2C275.4 357.5 270.7 353.7 266.4 349.8C263.1 346.9 258.3 347.1 255.2 350.1C251.5 353.9 247.5 357.5 243.3 360.8C243 361.1 242.7 361.3 242.4 361.5C216.3 381.3 186.9 391.4 155.2 391.4C146.2 391.4 137.6 390.6 129.7 389C111.4 385.6 93.4 378.4 76.3 367.4C76.1 367.3 75.9 367.2 75.7 367C61.7 357.7 48.7 344.5 35.9 326.7C35.8 326.5 35.6 326.4 35.5 326.2C25.4 311.5 17.3 295 11.4 277.1C5.8 259.9 2.3 242.2 0.9 224.6C0.3 216.5 0 209.9 0 204.6C0 185.6 2.4 165.1 7.2 143.9C7.2 143.7 7.2 143.5 7.3 143.3C13.9 115.4 23.4 90.7 35.5 69.9C35.6 69.7 35.7 69.5 35.8 69.4C52.8 41.1 73.9 21.3 98.5 10.5C113.3 3.5 130.1 0 148.6 0C168.7 0 187.5 6.3 204.7 18.9C206.7 20.3 208.7 21.8 210.7 23.4C212.8 25.1 215.6 25.6 218.1 24.8C226.1 22.2 234.2 20.9 242.4 20.9C242.8 20.9 243.2 20.9 243.5 20.9C246.6 17.9 249.9 15.2 253.5 13C254.2 12.5 255 12 255.8 11.6C265.6 6.4 276.2 3.7 287.3 3.7C293.7 3.7 300.1 4.4 306.1 5.9C314.1 7.6 322.1 11.3 331.2 17.3C331.9 17.8 332.6 18.3 333.3 18.9C338.1 22.6 342.2 26.1 345.8 29.5C348.5 32 352.6 32.4 355.7 30.4C357 29.5 358.3 28.8 359.6 28C371.9 20.4 385.5 16.6 400.2 16.6C409.4 16.6 418.5 18 427.3 20.9C428.5 21.3 429.7 21.7 430.9 22.1C432.9 22.9 435.1 22.8 437.1 22C446.6 17.8 455.9 14.9 464.9 13.4C470.3 12.5 476.6 12 484.8 12C490.5 12 495.2 12.2 499.1 12.6C516.8 14.4 532.2 20 544.9 29.2C546.3 30.1 547.5 31.1 548.8 32.1C551.2 34.1 554.5 34.5 557.3 33.2C574.4 25.5 591.4 20.3 608.2 17.6C619.5 15.5 630.8 14.5 642 14.5C654.9 14.5 667.3 15.8 678.9 18.3C679.1 18.4 679.2 18.4 679.4 18.4C685 19.7 690.5 21.3 695.8 23.1C697.8 23.8 699.9 23.7 701.8 22.8C702.4 22.6 703 22.3 703.6 22C703.9 21.9 704.1 21.8 704.4 21.7C719.7 15.3 735 12.1 750.1 12.1C765.1 12.1 778.2 15.1 791.1 21.1C793.9 20.9 796.1 20.7 798.9 20.4C809.8 13 820.8 7.8 831.6 5C832.4 4.8 833.1 4.6 833.9 4.5C840.5 3.2 847.2 2.5 853.8 2.5C857.3 2.5 861.6 2.9 867.7 3.6C868.7 3.8 869.6 3.9 870.5 4.1C882.5 6.5 894.2 12.4 905 21.7C905.3 22 905.6 22.2 905.9 22.5C916.5 32.1 924.4 44.3 929.6 58.9C929.8 59.5 930 60.2 930.2 60.8C933.5 71.8 935.1 83.1 935.1 94.2C935.1 98.8 934.8 104.1 934 110.2C934 110.7 933.9 111.2 933.8 111.6C931.3 127.2 926.6 142 920 155.6C919.8 156.1 919.5 156.7 919.2 157.2C915.3 164.3 911.5 170.2 907.8 175.1C907.7 175.2 907.6 175.3 907.5 175.4C903.9 181 900.1 185.8 896.1 189.9C895.7 190.4 895.3 190.8 894.9 191.3C894.9 191.8 894.9 192.4 894.9 193C894.9 194.1 894.9 195.2 894.8 196.3C894.7 199 895.8 201.5 897.9 203.1C900.7 205.2 903.3 207.4 905.9 209.7C915.1 217.7 923 227.7 929.3 239.5C936.5 252.9 940.1 267.5 940.1 283C940.1 296.4 937.8 308.7 933.3 319.6C927.1 336.1 917.2 349.6 903.9 359.7C892.1 368.9 879.1 375.4 865.3 378.9C857.2 381.1 849.3 382.2 841.7 382.2C834.9 382.2 828.3 381.3 822 379.6C820 379.1 817.9 379.3 816.1 380.3C797.9 390.1 777.1 395.1 753.8 395.1H753.8Z" fill="#FCB0E6"/><path d="M895.3 268.5C891.2 260.8 886.2 254.4 880.4 249.4C874.3 243.9 867.3 239.2 859.2 235.3L847.6 231.6C846.4 231.3 845.3 231 844.2 230.8C844.8 230.3 845.3 229.7 846 229.1C848.7 226.6 851.1 222.9 853.2 218.1C855.3 213.2 856.3 208.5 856.3 203.8C856.3 199.6 855.6 195.6 854.1 191.7C853.5 190.4 852.9 189.1 852.2 187.9C857.3 184.9 862.5 180.4 868 174.3C870.7 171.5 873.5 167.9 876.3 163.5C879 160.2 882 155.5 885.4 149.4C890.4 139.2 893.8 128.1 895.8 116.2C896.3 111.8 896.6 108 896.6 105C896.6 97.5 895.5 90.1 893.3 82.6C890.2 74 885.8 67.1 880 61.8C874.2 56.9 868.5 53.8 863 52.7C858.6 52.2 855.5 51.9 853.8 51.9C849.7 51.9 845.5 52.3 841.4 53.1C833.9 55.1 826.1 59.1 817.8 65.2C811.7 69.1 805 75.3 797.8 83.5C783.6 68.8 767.7 61.4 750.1 61.4C740.1 61.4 729.9 63.6 719.4 68C713.4 70.7 707.6 74.4 702.2 79C693 73.6 682.5 69.5 670.7 66.8C661.9 64.9 652.3 63.9 642.1 63.9C633 63.9 623.8 64.7 614.7 66.4C597.3 69.2 579.4 75.4 561.2 85.1C551.5 90.9 543.6 95.9 537.5 100C536.6 100.5 535.6 101.2 534.4 102C534.8 100 535 97.9 535 95.9C535 90.6 533.8 85.8 531.5 81.5C529.2 77.3 526.2 73.9 522.6 71.4C515.4 66.1 506.3 62.9 495.2 61.8C492.7 61.5 489.2 61.4 484.8 61.4C479 61.4 474.6 61.7 471.6 62.2C464.9 63.4 457.7 65.7 450 69.3C443.7 72.3 438.4 75.5 433.8 78.8C428 73.9 421.9 70.4 415.6 68.5C410.6 66.8 405.5 66 400.2 66C392.5 66 385.4 68 379.1 72.2C374.1 74.7 369 79.7 363.7 87.1C359.9 92.4 356.1 99 352.5 107C351.5 109.2 350.7 111.6 350 114C348.3 110.3 346.6 106.6 344.6 102.9C341.6 96.5 338.6 91.3 335.5 87.1C331.6 81 327.6 76.2 323.5 72.6C320.4 69 315.9 64.9 309.8 60.2C304.8 56.8 300.8 54.9 297.8 54.4C294.4 53.5 291 53.1 287.4 53.1C282.7 53.1 278.3 54.2 274.1 56.4C269.7 59.2 266.4 63.6 264.1 69.7C262.8 73.4 261.9 77.1 261.4 80.9C260.9 80 260.4 79.1 259.9 78.4C256.3 74.6 252.1 71.9 247.4 70.5C238.8 69.4 230.4 71.2 222.1 75.9C215.3 79.6 209.8 84.9 205.8 92C205.1 90.3 204.4 88.6 203.6 86.9C198.5 76 191.4 67.4 182.3 61C171.7 53.2 160.5 49.4 148.6 49.4C135.6 49.4 124.3 51.7 114.6 56.4C97.2 63.9 82 78.4 69 100C58.7 117.7 50.7 138.7 44.9 163.1C40.7 181.6 38.7 199 38.7 215.3C38.7 219.5 38.9 225.2 39.5 232.4C40.6 247 43.5 261.6 48.2 275.9C52.9 290.3 59.3 303.3 67.3 314.9C77.3 328.8 87.2 339 97.2 345.6C110.2 353.9 123.4 359.4 137 361.8C142.6 362.9 148.6 363.5 155.3 363.5C178.5 363.5 199.8 356.2 219.2 341.5C230.5 332.4 239.8 321.3 247 308.3C251.6 299.7 254.8 290.2 256.6 279.7C258.6 285.2 260.5 289.7 262.5 293.4C267.2 302.5 273.4 311.6 281.1 320.7C287.2 327.7 294.7 334.4 303.5 341.1C310.7 345.8 318.8 350.2 327.6 354.4C335.4 357.4 343.2 359.9 351.3 361.8C356.5 362.9 362.5 363.5 369.1 363.5C374.9 363.5 379.2 363.2 382 362.6C393 360.7 404.5 356 416.4 348.6C426.4 342.2 436.5 332 446.7 317.9C454.7 307.1 461.5 293.5 467 277.2C471.7 261.7 474.9 246.1 476.6 230.3C477.3 223.4 477.6 216.5 477.8 209.4C484.1 207.4 490.8 204.4 497.7 200.4C499.5 199.6 501.7 198.6 504.2 197.2C503.7 199.2 503.3 200.8 503.1 201.6C501.7 206.6 501 212.2 501 218.2C501 224.3 502 230.1 503.9 234.8C505.9 238.9 508 242.1 510.3 244.6C508.6 247.2 506.4 250.6 503.7 254.7C498.3 263 493.7 271.5 489.8 280.1C481.8 296.7 477.8 312.4 477.8 327.4C477.8 331.8 478.2 335.9 479 339.8C479.8 345.6 481.8 350.1 484.8 353.1C487.9 357.5 492.4 360.6 498.5 362.2C502.7 363.1 506.9 363.5 511.4 363.5C518.6 363.5 525.9 362.6 533.4 361C538.9 359.9 544.2 358.5 549.1 356.8C555.2 355.2 563 351.8 572.4 346.9C578.2 344.1 585.7 340.1 594.8 334.8C603.6 329 610.1 324.6 614.3 321.6C628.7 309.9 637.9 297.9 642.1 285.4C643.2 282.1 643.7 277.6 643.7 271.8C643.7 268.7 643.6 266.4 643.3 264.7C642.2 258.1 639.7 251.8 635.9 246C630.9 239.4 626.2 235.2 621.7 233.6C617.6 232.2 614.1 231.5 611.4 231.5C609.7 231.5 606.7 232 602.3 233.2C593.6 236.1 585.6 244.1 578.2 257.2C577.7 254.2 577.3 251.7 577.1 249.8C576.7 245.3 576.5 238.7 576.5 229.8C576.5 219.9 577.6 208.9 579.8 197.1C580.1 194.4 581 189.6 582.6 182.7C583.9 183.7 585.1 184.6 586.5 185.4C599.2 194 614.6 198.3 632.5 198.3C641.4 198.3 649.6 197.8 657.2 196.8C657.2 198 657.1 199.2 657.1 200.4C657.1 207 657.3 212 657.6 215.3C658.7 235 660.6 251.6 663.4 265.1C666.7 284.5 671.7 301.1 678.3 314.9C686.3 333.2 696.3 346.2 708.2 353.9C720.6 362.8 735.8 367.2 753.8 367.2C776.5 367.2 795.3 361 810.3 348.5C811.1 347.7 812.6 346.4 814.6 344.6C815.2 344.1 815.7 343.5 816.3 343C818.8 345.6 821.5 347.9 824.4 349.8C829.6 352.8 835.4 354.3 841.8 354.3C846 354.3 850.5 353.6 855.5 352.2C864.4 350.1 872.7 345.9 880.4 339.8C888.2 334 893.8 326.1 897.4 316.2C900.2 309.8 901.6 302.3 901.6 293.8C901.6 284.6 899.5 276.2 895.4 268.4L895.3 268.5ZM841.1 192.2C841.2 192.3 841.4 192.4 841.4 192.5L841.1 192.2ZM840.6 192.1L840.8 191.9L840.5 191.7H841L840.6 192.1H840.6ZM264 132.4C265.3 127.2 266 123.2 266.4 120.2C269 127.4 272.1 133.1 275.9 137.2C275.9 137.3 275.8 137.3 275.7 137.4C267.1 144 259.9 154.4 254.2 168.5C248.8 180.9 245.7 195.7 245.1 212.8C245 212.7 244.9 212.6 244.9 212.5C239.1 204.7 233.9 199.2 229.5 195.9C227.2 194 224.9 192.4 222.6 191C227.3 187.2 232 182.7 237 177.6C239.5 175.1 243.1 170.8 247.8 164.7C252.5 157.6 255.7 152.3 257.3 149C260.9 141.2 263.1 135.7 264 132.4V132.4Z" fill="#FF4DBB"/><path d="M279.9 78.4C278 73.2 276.1 69.2 274.2 66.4C270.6 62.5 266.4 59.9 261.7 58.5C253.1 57.4 244.7 59.2 236.4 63.9C229.5 67.5 224.1 72.9 220.1 80C219.4 78.3 218.7 76.6 217.9 74.9C212.8 64 205.7 55.3 196.5 49C186 41.2 174.8 37.3 162.9 37.3C149.9 37.3 138.6 39.7 128.9 44.4C111.5 51.9 96.2 66.4 83.3 88C73 105.7 65 126.7 59.2 151C55 169.6 53 187 53 203.3C53 207.5 53.2 213.2 53.8 220.3C54.9 235 57.8 249.5 62.5 263.9C67.2 278.3 73.6 291.3 81.6 302.9C91.5 316.8 101.5 327 111.5 333.6C124.5 341.9 137.7 347.3 151.3 349.8C156.8 350.9 162.9 351.5 169.5 351.5C192.8 351.5 214.1 344.1 233.5 329.5C244.8 320.4 254.1 309.3 261.2 296.3C268.7 282.5 272.5 266.1 272.5 247.3C272.5 236 270.9 226.2 267.9 217.8C265.7 210.7 262.8 204.9 259.2 200.4C253.4 192.7 248.2 187.2 243.8 183.8C241.5 182 239.2 180.4 236.9 179C241.6 175.1 246.3 170.7 251.3 165.6C253.8 163.1 257.4 158.8 262.1 152.7C266.8 145.5 270 140.2 271.6 136.9C275.2 129.2 277.4 123.7 278.3 120.3C279.7 114.8 280.5 110.5 280.8 107.5C281.3 101.9 281.6 97.4 281.6 93.8C281.6 88 281 82.9 279.9 78.4L279.9 78.4ZM272.1 100.4C271.5 104.3 271 107.8 270.4 110.8C270.1 113.3 268.7 117.6 266.3 123.7C265.4 125.9 264.1 128.5 262.3 131.6C260.5 134.6 259.2 136.9 258.4 138.6C257 141.4 254.1 145.2 249.7 150.2C246.1 154.6 242.3 158.5 238.4 161.8C234.3 166 230.4 169.3 226.8 171.8C221.6 175.1 217.4 177.3 214.4 178.4C212.4 179.5 207.3 181.6 199 184.6C193.5 185.8 189.2 186.3 186.2 186.3C181.2 186.3 176.6 185.5 172.5 183.8C167.8 180.8 164.9 178.1 163.8 175.9C160.7 171.2 159.2 166.8 159.2 162.7C159.2 162.2 159.2 161.6 159.3 161C162.4 161.8 165.5 162.6 168.8 163.1L177.9 164.3C179.5 164.3 180.8 163.6 181.6 162.2C182.4 160.8 182.9 159.3 182.9 157.7C182.9 155.7 182.4 154.1 181.6 152.7C180.8 151.3 179.5 150.6 177.9 150.6C170.2 150 163.1 148.6 156.7 146.3C156.6 146.2 156.5 146.2 156.4 146.2C153.9 145.3 151.5 144.3 149.2 143.1C146.2 142.3 144 141.2 142.6 139.8C140.4 139 138.7 139.3 137.4 140.9C136.2 142.4 135.6 144.4 135.6 146.9C135.6 148.3 135.8 149.5 136.4 150.6C136.9 151.7 137.6 152.4 138.5 152.7C142.2 154.7 146 156.5 149.8 158C149.7 159.2 149.7 160.5 149.7 161.8C149.7 166.5 150.2 170.5 151.3 173.8C152.7 178.2 154.4 181.9 156.2 184.9C153.1 187.1 149.5 190 145.5 193.4C139.4 200 134.9 206.9 131.8 214.1C129.6 218.8 127.9 223.1 126.9 227C126.3 227.5 126 228.6 126 230.3C126 232.2 126.5 234 127.5 235.5C128.4 237 129.5 237.8 130.6 237.8C132 237.8 133.5 236.4 135.2 233.6C136.8 227 139.9 219.9 144.3 212.4C147.3 208.3 151.9 203.6 158 198.3C161 196.2 163.4 194.7 165.1 193.7C171.1 197.6 178 199.6 185.8 199.6C188.8 199.6 191.2 199.4 192.8 199.2C197.8 198.9 203.3 197.5 209.4 195C211.9 194.2 217 191.9 224.8 188L224.8 188C230.8 189.7 235.8 192.4 239.7 196.3C245.2 200.2 249.5 204.6 252.6 209.6C259.5 220.1 262.9 233.1 262.9 248.6C262.9 257.4 261.4 266.8 258.4 276.8C255.9 286.2 249.8 296.4 240.1 307.5C231.3 316.9 220.8 324.3 208.6 329.7C196.4 335.1 183.5 337.8 170 337.8C156.4 337.8 143.9 335.1 131.6 329.9C119.3 324.6 108.7 317.3 99.9 307.9C82.2 288.5 70.8 264.9 65.8 236.9C63.6 225.1 62.5 214.1 62.5 204.2C62.5 193.4 63.6 181.3 65.8 168C70 146.2 75.9 126.5 83.7 109.1C93.3 89.5 105.4 74.4 119.8 63.9C127 58.9 135.4 55.3 145.1 53.1C151.4 51.7 157.3 51 162.5 51C167.2 51 171.6 51.6 175.8 52.7C188.5 56.6 198.5 63.8 205.7 74.5C209.9 80.7 212.8 87.4 214.6 94.5C214.5 94.8 214.4 95.1 214.4 95.4C214.1 95.7 214.3 96 215 96.2C215.9 100.8 216.5 105.5 216.5 110.4L216 116.6C214.9 118.8 215 120.9 216.2 122.8C217.5 124.8 218.9 125.7 220.6 125.7C221.7 125.7 222.7 125.2 223.5 124.3C224.3 123.3 224.8 122 224.8 120.3C225.3 115.3 225.6 111.6 225.6 109.1C225.6 104.4 225.1 99.7 224.3 95.1C225.8 88.5 229.9 82.9 236.4 78.4C242.7 74 249.4 71.8 256.3 71.8C259.3 71.8 262.2 72.5 265 73.8C266.9 75.2 268.5 77 269.6 79.2C270.7 82 271.5 85.2 272.1 88.8C272.3 92.9 272.3 96.8 272.1 100.4V100.4Z" fill="#FF4DBB"/><path d="M272.1 100.4C271.5 104.3 271 107.8 270.4 110.8C270.1 113.3 268.7 117.6 266.3 123.7C265.4 125.9 264.1 128.5 262.3 131.6C260.5 134.6 259.2 136.9 258.4 138.6C257 141.4 254.1 145.2 249.7 150.2C246.1 154.6 242.3 158.5 238.4 161.8C234.3 166 230.4 169.3 226.8 171.8C221.6 175.1 217.4 177.3 214.4 178.4C212.4 179.5 207.3 181.6 199 184.6C193.5 185.8 189.2 186.3 186.2 186.3C181.2 186.3 176.6 185.5 172.5 183.8C167.8 180.8 164.9 178.1 163.8 175.9C160.7 171.2 159.2 166.8 159.2 162.7C159.2 162.2 159.2 161.6 159.3 161C162.4 161.8 165.5 162.6 168.8 163.1L177.9 164.3C179.5 164.3 180.8 163.6 181.6 162.2C182.4 160.8 182.9 159.3 182.9 157.7C182.9 155.7 182.4 154.1 181.6 152.7C180.8 151.3 179.5 150.6 177.9 150.6C170.2 150 163.1 148.6 156.7 146.3C156.6 146.2 156.5 146.2 156.4 146.2C153.9 145.3 151.5 144.3 149.2 143.1C146.2 142.3 144 141.2 142.6 139.8C140.4 139 138.7 139.3 137.4 140.9C136.2 142.4 135.6 144.4 135.6 146.9C135.6 148.3 135.8 149.5 136.4 150.6C136.9 151.7 137.6 152.4 138.5 152.7C142.2 154.7 146 156.5 149.8 158C149.7 159.2 149.7 160.5 149.7 161.8C149.7 166.5 150.2 170.5 151.3 173.8C152.7 178.2 154.4 181.9 156.2 184.9C153.1 187.1 149.5 190 145.5 193.4C139.4 200 134.9 206.9 131.8 214.1C129.6 218.8 127.9 223.1 126.9 227C126.3 227.5 126 228.6 126 230.3C126 232.2 126.5 234 127.5 235.5C128.4 237 129.5 237.8 130.6 237.8C132 237.8 133.5 236.4 135.2 233.6C136.8 227 139.9 219.9 144.3 212.4C147.3 208.3 151.9 203.6 158 198.3C161 196.2 163.4 194.7 165.1 193.7C171.1 197.6 178 199.6 185.8 199.6C188.8 199.6 191.2 199.4 192.8 199.2C197.8 198.9 203.3 197.5 209.4 195C211.9 194.2 217 191.9 224.8 188L224.8 188C230.8 189.7 235.8 192.4 239.7 196.3C245.2 200.2 249.5 204.6 252.6 209.6C259.5 220.1 262.9 233.1 262.9 248.6C262.9 257.4 261.4 266.8 258.4 276.8C255.9 286.2 249.8 296.4 240.1 307.5C231.3 316.9 220.8 324.3 208.6 329.7C196.4 335.1 183.5 337.8 170 337.8C156.4 337.8 143.9 335.1 131.6 329.9C119.3 324.6 108.7 317.3 99.9 307.9C82.2 288.5 70.8 264.9 65.8 236.9C63.6 225.1 62.5 214.1 62.5 204.2C62.5 193.4 63.6 181.3 65.8 168C70 146.2 75.9 126.5 83.7 109.1C93.3 89.5 105.4 74.4 119.8 63.9C127 58.9 135.4 55.3 145.1 53.1C151.4 51.7 157.3 51 162.5 51C167.2 51 171.6 51.6 175.8 52.7C188.5 56.5 198.5 63.8 205.7 74.5C209.9 80.7 212.8 87.4 214.6 94.5C214.5 94.8 214.4 95.1 214.4 95.4C214.1 95.7 214.3 96 215 96.2C215.9 100.8 216.5 105.5 216.5 110.4L216 116.6C214.9 118.8 215 120.9 216.2 122.8C217.5 124.8 218.9 125.7 220.6 125.7C221.7 125.7 222.7 125.2 223.5 124.3C224.3 123.3 224.8 122 224.8 120.3C225.3 115.3 225.6 111.6 225.6 109.1C225.6 104.4 225.1 99.7 224.3 95.1C225.8 88.5 229.9 82.9 236.4 78.4C242.7 74 249.4 71.8 256.3 71.8C259.3 71.8 262.2 72.5 265 73.8C266.9 75.2 268.5 77 269.6 79.2C270.7 82 271.5 85.2 272.1 88.8C272.3 92.9 272.3 96.8 272.1 100.4V100.4Z" fill="#FFFEFF"/><path d="M490.9 167.7C489.2 150.5 485.6 134.2 480.1 118.7C474.9 102.9 468.1 89.8 459.8 79.3C450.6 67.4 440.7 59.8 429.9 56.5C424.9 54.8 419.8 54 414.6 54C406.8 54 399.7 56 393.4 60.2C388.4 62.7 383.3 67.7 378 75.1C374.2 80.4 370.4 87 366.8 95C365.8 97.2 365 99.6 364.3 102C362.6 98.3 360.9 94.6 358.9 90.9C355.9 84.5 352.9 79.3 349.8 75.1C345.9 69 341.9 64.2 337.8 60.6C334.7 57 330.2 52.9 324.1 48.2C319.1 44.8 315.1 42.9 312.1 42.4C308.7 41.5 305.3 41.1 301.7 41.1C297 41.1 292.6 42.2 288.4 44.4C284 47.2 280.7 51.6 278.5 57.7C276.2 63.8 275.1 69.9 275.1 76C275.1 85.4 276.5 94.6 279.3 103.8C282.1 113.2 285.8 120.3 290.3 125.2C290.2 125.2 290.2 125.3 290.1 125.3C281.5 132 274.3 142.3 268.5 156.5C263 169.2 259.9 184.4 259.4 202.1C259.4 218.2 260.9 232.7 263.9 245.7C268.4 261.7 272.7 273.6 276.8 281.4C281.5 290.5 287.7 299.6 295.5 308.7C301.6 315.7 309 322.4 317.9 329.1C325.1 333.8 333.1 338.2 342 342.4C349.7 345.4 357.6 347.9 365.6 349.8C370.9 350.9 376.8 351.5 383.4 351.5C389.3 351.5 393.5 351.2 396.3 350.7C407.4 348.7 418.9 344 430.8 336.6C440.7 330.2 450.8 320 461 305.9C469.1 295.1 475.8 281.5 481.4 265.2C486.1 249.7 489.3 234.1 490.9 218.3C491.7 210 492.2 201.6 492.2 193C492.2 184.4 491.7 176 490.9 167.7L490.9 167.7ZM477.2 241.9C474.7 254.7 470.3 267.6 463.9 280.9C457.6 293.1 449.4 304.2 439.4 314.1C430.6 322.7 420.4 329.1 408.7 333.2C401 336.3 392.4 337.8 383 337.8C375.5 337.8 366.7 336.4 356.5 333.6C346.8 330.3 339.3 327.1 334 324.1C324.9 319.1 317.9 314.3 312.9 309.6C303.8 301.3 297.1 294.2 293 288.4C287.4 279.6 282.6 270.2 278.4 260.2C274.8 250.8 272.1 238.9 270.1 224.5C269.3 217.9 268.9 211.5 268.9 205.4C268.9 198.8 269.6 191 271 182.2C272.9 169.7 277.6 158.1 285.1 147.3C289.6 140.1 295.3 135.2 302 132.7C302.2 132.7 302.4 132.8 302.5 132.8C303.7 132.8 304.6 132.4 305.4 131.7C307.9 131.1 310.5 130.7 313.3 130.7C316.1 130.7 318 131 319.1 131.6C320.8 131.8 322.2 131.2 323.3 129.7C324.4 128.2 324.9 126.3 324.9 124.1C324.9 120.8 323.7 118.7 321.2 117.9C319.3 117.3 316.5 117 312.9 117C309.3 117 305.6 117.6 302.2 118.6C297.2 116.9 293.2 112.5 290.5 105.4C286.6 96 284.7 85.9 284.7 75.1C284.7 67.7 286.5 62 290.1 58.1C292.3 55.9 295.7 54.8 300.4 54.8C302.9 54.8 304.9 54.9 306.2 55.2C308.7 55.5 311.4 56.2 314.1 57.3C318 58.4 321.6 60.7 324.9 64.3C330.4 69.3 334.6 73.5 337.4 76.8C341.5 82.3 344.6 86.7 346.5 90.1C352 100 356.7 109.7 360.6 119.1C360.6 119.2 360.6 119.2 360.7 119.3C360.5 120.5 360.8 121.7 361.4 122.8C361.5 123 361.6 123.1 361.7 123.2C363.3 129 364.3 133 364.7 135.3C366.7 143 367.9 149.4 368.5 154.4C369.3 160.2 369.7 165.8 369.7 171.4C369.7 177.2 369.2 182.7 368.1 188C367.2 192.4 365.7 196.1 363.5 199.2C362.7 200.8 361.3 202.4 359.6 203.9C357.8 205.5 355.6 206.4 353.1 206.7C351.7 207.2 349.4 206.9 346.1 205.8C344.1 205.3 342.7 205.6 341.7 206.9C340.7 208.1 340.3 209.7 340.3 211.6C340.3 213 340.5 214.4 341.1 215.8C341.6 217.2 342.3 218 343.2 218.3C346.2 219.9 349.1 220.8 351.9 220.8H353.9C357 220.5 360 219 363.1 216.2C364.9 215.1 366.7 213.5 368.3 211.4C370.4 217 372.6 221.9 374.7 226.2C380.5 235 385.5 241.2 389.6 244.8C391.6 246.5 395.1 248.8 400.4 251.9C402.6 253 404.4 252.9 405.6 251.5C406.8 250.1 407.5 248.2 407.5 245.7C407.5 242.6 406.5 240.6 404.6 239.4C398.2 236.4 393.4 232.7 390 228.2C385.3 223.3 381.6 217.2 378.8 210C378.3 208.5 377.1 204.9 375 199.2C376.8 194.2 377.9 189 378.4 183.4C379 178.4 379.3 174.4 379.3 171.4L378.8 163.5C378.8 157.4 378.1 150.9 376.8 144C375.9 139.3 375.1 135.3 374.3 132C373.4 128.6 372.7 125.9 372.2 123.7C371.7 121.8 371 119.9 370.4 118.1C371.4 112.3 373.2 106.3 375.9 100C378.7 94.2 382.1 88.4 386.3 82.6C389.3 77.9 393.4 74.2 398.6 71.6C403.7 69 409.3 67.7 415.3 67.7C420.3 67.7 425.3 68.5 430.3 70.4C435.3 72.1 439.4 74.6 442.8 77.6C450.8 84.8 458 94.6 464.3 107.1C470.7 120.3 475.4 134.4 478.4 149.4C481.2 164.1 482.6 179.7 482.6 196.3C482 211.8 480.2 227 477.2 241.9L477.2 241.9Z" fill="#FF4DBB"/><path d="M482.6 196.3C482.1 211.8 480.2 227 477.2 241.9C474.7 254.7 470.3 267.7 463.9 280.9C457.6 293.1 449.4 304.2 439.4 314.1C430.6 322.7 420.4 329.1 408.7 333.2C401 336.3 392.4 337.8 383 337.8C375.5 337.8 366.7 336.4 356.5 333.6C346.8 330.3 339.3 327.1 334 324.1C324.9 319.1 317.9 314.3 312.9 309.6C303.8 301.3 297.1 294.2 293 288.4C287.4 279.6 282.6 270.2 278.4 260.2C274.8 250.8 272.1 238.9 270.1 224.5C269.3 217.9 268.9 211.5 268.9 205.4C268.9 198.8 269.6 191 271 182.2C272.9 169.7 277.6 158.1 285.1 147.3C289.6 140.1 295.3 135.2 302 132.7C302.2 132.8 302.4 132.8 302.5 132.8C303.7 132.8 304.6 132.4 305.4 131.7C307.9 131.1 310.5 130.7 313.3 130.7C316.1 130.7 318 131 319.1 131.6C320.8 131.8 322.2 131.2 323.3 129.7C324.4 128.2 324.9 126.3 324.9 124.1C324.9 120.8 323.7 118.7 321.2 117.9C319.3 117.3 316.5 117 312.9 117C309.3 117 305.6 117.6 302.2 118.6C297.2 116.9 293.2 112.5 290.5 105.4C286.6 96 284.7 85.9 284.7 75.1C284.7 67.7 286.5 62 290.1 58.1C292.3 55.9 295.7 54.8 300.4 54.8C302.9 54.8 304.9 54.9 306.2 55.2C308.7 55.5 311.4 56.2 314.1 57.3C318 58.4 321.6 60.7 324.9 64.3C330.4 69.3 334.6 73.5 337.4 76.8C341.5 82.3 344.6 86.7 346.5 90.1C352 100 356.7 109.7 360.6 119.1C360.6 119.2 360.6 119.2 360.7 119.3C360.5 120.6 360.8 121.7 361.4 122.8C361.5 123 361.6 123.1 361.7 123.3C363.3 129 364.3 133 364.7 135.3C366.7 143 367.9 149.4 368.5 154.4C369.3 160.2 369.7 165.9 369.7 171.4C369.7 177.2 369.2 182.7 368.1 188C367.2 192.4 365.7 196.1 363.5 199.2C362.7 200.8 361.3 202.4 359.6 204C357.8 205.5 355.6 206.4 353.1 206.7C351.7 207.2 349.4 206.9 346.1 205.8C344.1 205.3 342.7 205.6 341.7 206.9C340.7 208.1 340.3 209.7 340.3 211.6C340.3 213 340.5 214.4 341.1 215.8C341.6 217.2 342.3 218 343.2 218.3C346.2 219.9 349.1 220.8 351.9 220.8H353.9C357 220.5 360 219 363.1 216.2C364.9 215.1 366.7 213.5 368.3 211.4C370.4 217 372.6 221.9 374.7 226.2C380.5 235 385.5 241.2 389.6 244.8C391.6 246.5 395.1 248.9 400.4 251.9C402.6 253 404.4 252.9 405.6 251.5C406.8 250.1 407.5 248.2 407.5 245.7C407.5 242.6 406.5 240.6 404.6 239.5C398.2 236.4 393.4 232.7 390 228.2C385.3 223.3 381.6 217.2 378.8 210C378.3 208.5 377.1 204.9 375 199.2C376.8 194.2 377.9 189 378.4 183.4C379 178.4 379.3 174.4 379.3 171.4L378.8 163.5C378.8 157.4 378.1 150.9 376.8 144C375.9 139.3 375.1 135.3 374.3 132C373.4 128.7 372.7 125.9 372.2 123.7C371.7 121.8 371 119.9 370.4 118.1C371.4 112.3 373.2 106.3 375.9 100C378.7 94.2 382.1 88.4 386.3 82.6C389.3 77.9 393.4 74.2 398.6 71.6C403.7 69 409.3 67.7 415.3 67.7C420.3 67.7 425.3 68.6 430.3 70.4C435.3 72.2 439.4 74.6 442.8 77.6C450.8 84.8 458 94.6 464.3 107.1C470.7 120.3 475.4 134.5 478.4 149.4C481.2 164.1 482.6 179.7 482.6 196.3L482.6 196.3Z" fill="#FFFEFF"/><path d="M746.9 99.4C743 91.2 738 84.2 731.9 78.4C719.8 67.1 704.1 59.2 685.1 54.8C676.2 52.9 666.6 51.9 656.4 51.9C647.3 51.9 638.2 52.7 629 54.4C611.6 57.1 593.8 63.3 575.5 73C565.8 78.8 557.9 83.8 551.9 88C550.9 88.5 549.9 89.2 548.8 90C549.1 87.9 549.3 85.9 549.3 83.8C549.3 78.6 548.2 73.8 545.8 69.5C543.5 65.2 540.5 61.8 536.9 59.3C529.7 54.1 520.6 50.9 509.5 49.8C507 49.5 503.6 49.4 499.1 49.4C493.3 49.4 488.9 49.7 485.9 50.2C479.2 51.3 472 53.7 464.3 57.3C456.3 61.1 449.6 65.3 444.4 69.7C439.7 73.6 434 79.1 427.4 86.3C423.8 91 419.5 97.6 414.5 106.2C410.9 112.9 407.9 120.2 405.4 128.2C402.3 139.3 400.8 149.4 400.8 158.5C400.8 167.1 401.8 173.6 403.7 178C405.6 183.8 408 188.1 410.8 190.9C414.6 194.4 417.8 196.8 420.3 197.9C425 200.4 429.4 201.9 433.6 202.5C437.7 203 442.9 203.3 448.9 203.3C455 203.3 461.1 202.9 466.4 202.1C475.8 201 482.8 199.9 487.5 198.8C495.3 196.8 503.4 193.4 512 188.4C513.8 187.6 516 186.6 518.5 185.2C518 187.2 517.6 188.7 517.4 189.6C516 194.6 515.3 200.2 515.3 206.2C515.3 212.3 516.3 218.1 518.2 222.8C520.2 226.9 522.3 230.1 524.6 232.6C522.9 235.2 520.7 238.6 518.1 242.7C512.7 251 508 259.5 504.1 268.1C496.1 284.7 492.1 300.4 492.1 315.4C492.1 319.8 492.5 323.9 493.3 327.8C494.2 333.6 496.1 338.1 499.2 341.1C502.2 345.5 506.8 348.5 512.9 350.2C517 351.1 521.3 351.5 525.7 351.5C532.9 351.5 540.2 350.6 547.7 349C553.2 347.9 558.5 346.5 563.5 344.8C569.5 343.1 577.3 339.8 586.7 334.9C592.5 332.1 600 328.1 609.1 322.8C618 317 624.4 312.6 628.6 309.6C643 297.9 652.3 285.9 656.4 273.4C657.5 270.1 658.1 265.5 658.1 259.8C658.1 256.7 657.9 254.3 657.6 252.7C656.6 246.1 654.1 239.8 650.2 234C645.2 227.4 640.5 223.2 636.1 221.6C631.9 220.2 628.5 219.5 625.7 219.5C624 219.5 621 220 616.6 221.1C607.9 224 599.9 232.1 592.5 245.2C592 242.2 591.7 239.7 591.5 237.7C591.1 233.3 590.8 226.7 590.8 217.8C590.8 207.9 592 196.9 594.2 185C594.4 182.4 595.3 177.6 597 170.7C598.2 171.6 599.5 172.6 600.8 173.4C613.5 182 628.9 186.3 646.9 186.3C664.9 186.3 679 184.3 691.7 180.5C706.6 177.2 719.5 171.3 730.3 163.1C736.1 158.6 741 153 745 146.2C749 139.5 751.5 132.2 752.3 124.4C752.5 115.9 750.8 107.5 746.9 99.4L746.9 99.4ZM741.1 132.8C739.7 136.9 736.5 141.6 731.5 146.9C724.6 153.8 714 159.9 699.6 165.2C688 168.7 675.4 171.2 661.8 172.6C658.8 172.9 654.3 173 648.5 173C634.4 173 623.1 171 614.5 166.8C607.3 164.1 602.2 160.9 599.1 157.3C599 157.2 598.9 157 598.7 156.9C598.6 156.7 598.6 156.6 598.5 156.4C598 155.6 597.4 155.1 596.6 154.9C592.8 150.9 590.8 146.9 590.8 142.8C590.8 141.6 591.3 139.8 592.1 137.4C592.9 136.5 591.8 135.8 588.8 135.3C585.7 134.7 583.8 134.3 583 134C582.4 135.7 582.1 138.5 582.1 142.3C582.1 148.4 583.1 153.4 585 157.3C586.3 159.4 587.8 161.4 589.3 163.3C585.8 176.4 583.5 188.8 582.5 200.4C582 205.1 581.7 212.3 581.7 222C581.7 230 581.9 236 582.1 239.9C583 249.6 583.9 257.4 585 263.5C585.6 267.4 586.8 269.3 588.8 269.3C589.9 269.3 591.3 268.5 592.9 266.8C597.1 257.7 600 251.9 601.6 249.4C605 244.1 608.8 239.8 613.3 236.5C617.1 234 621.2 232.8 625.3 232.8C630.6 232.8 635.1 234.4 639 237.8C645.9 244.7 649.4 252.2 649.4 260.2C649.4 271.5 642.5 282.9 628.6 294.2C626.1 296.7 620.7 300.7 612.4 306.2L591.7 318.7C584.2 323.1 577.2 326.6 570.5 329.1C568.9 329.6 566.2 330.5 562.6 331.5C559.1 332.6 555.7 333.5 552.7 334C540.8 337.6 530.4 339 521.6 338.2C515.8 337.6 511.6 336.7 509.1 335.3L505 331.9C503.6 329.8 502.6 327 502 323.6C501.5 319.2 501.2 316.1 501.2 314.1C501.2 305.3 503.6 294.8 508.3 282.6C512.7 271.8 519.9 258.7 529.9 243.2C531.2 241.5 532.5 239.7 533.6 237.8C534.7 235.8 536.1 233.8 537.7 231.6C537.5 231.3 537.2 231.1 536.9 230.9C536.6 230.8 536.5 230.6 536.5 230.3C532.1 226.7 529 223.2 527.4 219.7C525.7 216.3 524.7 212.3 524.5 207.9C524.5 203.5 525 199.1 526.1 194.6C526.9 190.2 528.1 186.9 529.5 184.7C529.9 182.6 532.5 178.8 537.1 173.6C544.7 168.3 551.4 163.1 557.2 158.1L567.2 149.4C567.8 148 567.6 145.9 566.8 143.2C566 140.4 564.7 139 563.1 139C561.9 139 560.7 139.7 559.3 141.1C555.4 144.7 549.5 149.7 541.5 156C533.7 161.8 526.5 166.7 519.9 170.6C510.2 175.8 502.6 179.5 497.1 181.8L485.9 185.9L476.3 187.6C474.1 187.8 470.9 188.3 466.6 188.8C462.3 189.3 458.5 189.8 455.2 190.1C446.6 190.6 439.5 190.3 434 189.2C426.3 187.3 420.9 184.8 417.8 181.8C414.8 178.7 412.7 175.5 411.6 172.2C410.5 168.9 409.9 164.6 409.9 159.3C409.9 156.3 410.5 150.6 411.6 142.3C412.2 138.5 414.2 131.8 417.8 122.4C420.3 116.6 423.6 110.4 427.8 103.7C431.9 98.2 436.5 93 441.5 88C445.9 83.6 451.4 79.3 458.1 75.1C462.2 72.4 468.4 69.3 476.7 66C484.8 63.8 492.8 62.7 500.8 62.7C507.4 62.7 513.7 63.5 519.5 65.2C528.6 67.4 534.7 70.8 537.7 75.5C539.4 78.3 540.2 80.8 540.2 83C540.2 84.9 539.9 86.6 539.4 88C539.1 92.1 536.8 97.2 532.3 103.3C531.4 104.5 530.5 105.7 529.6 106.9L529.4 107C529.3 107.2 529.1 107.4 529 107.7C525.8 111.8 522.3 115.8 518.7 119.9C518.1 120.8 516.3 122.7 513.3 125.7C512.4 126.5 512 128.1 512 130.3C512 131.9 512.3 133.5 513 134.8C513.7 136.2 514.6 136.9 515.7 136.9C517.1 136.9 518.5 136.2 519.9 134.8C524.3 130.4 528.7 125.5 533.2 119.9C534 118.9 534.8 117.8 535.6 116.7C535.6 116.6 535.7 116.6 535.7 116.6C538.7 113.3 543.5 109 550.2 103.7C554.3 100.4 560 96.5 567.2 92.1C581.3 83 597.9 75.7 617 70.1C629.5 66.8 642.5 65.2 656 65.2C661.5 65.2 665.7 65.3 668.5 65.6C677.9 66.4 686.3 68.1 693.8 70.5C703.4 73.6 710.6 76.9 715.3 80.5C733.9 92.9 743.2 106.6 743.2 121.6C743.2 124.3 742.5 128.1 741.1 132.8L741.1 132.8Z" fill="#FF4DBB"/><path d="M743.1 121.6C743.1 124.4 742.4 128.1 741.1 132.8C739.7 136.9 736.5 141.6 731.5 146.9C724.6 153.8 714 159.9 699.6 165.2C687.9 168.7 675.4 171.2 661.8 172.6C658.8 172.9 654.3 173 648.5 173C634.4 173 623.1 171 614.5 166.8C607.3 164.1 602.2 160.9 599.1 157.3C599 157.2 598.8 157 598.7 156.9C598.6 156.7 598.6 156.6 598.5 156.4C598 155.6 597.4 155.1 596.6 154.9C592.8 150.9 590.8 146.9 590.8 142.8C590.8 141.6 591.2 139.8 592.1 137.4C592.9 136.5 591.8 135.8 588.8 135.3C585.7 134.7 583.8 134.3 582.9 134C582.4 135.7 582.1 138.5 582.1 142.3C582.1 148.4 583.1 153.4 585 157.3C586.3 159.4 587.8 161.4 589.3 163.3C585.7 176.4 583.5 188.8 582.5 200.4C582 205.1 581.7 212.3 581.7 222C581.7 230 581.9 236 582.1 239.9C582.9 249.6 583.9 257.4 585 263.5C585.6 267.4 586.8 269.3 588.8 269.3C589.9 269.3 591.2 268.5 592.9 266.8C597.1 257.7 600 251.9 601.6 249.4C605 244.1 608.8 239.8 613.2 236.5C617.1 234 621.1 232.8 625.3 232.8C630.5 232.8 635.1 234.4 639 237.8C645.9 244.7 649.4 252.2 649.4 260.2C649.4 271.5 642.4 282.9 628.6 294.2C626.1 296.7 620.7 300.7 612.4 306.2L591.7 318.7C584.2 323.1 577.2 326.6 570.5 329.1C568.9 329.6 566.2 330.5 562.6 331.5C559 332.6 555.7 333.5 552.7 334C540.8 337.6 530.4 339 521.5 338.2C515.7 337.6 511.6 336.7 509.1 335.3L504.9 331.9C503.6 329.8 502.6 327 502 323.6C501.5 319.2 501.2 316.1 501.2 314.1C501.2 305.3 503.6 294.8 508.2 282.6C512.7 271.8 519.9 258.7 529.8 243.2C531.2 241.5 532.5 239.7 533.6 237.8C534.7 235.8 536.1 233.8 537.7 231.6C537.4 231.3 537.2 231.1 536.9 230.9C536.6 230.8 536.5 230.6 536.5 230.3C532 226.7 529 223.2 527.4 219.7C525.7 216.3 524.7 212.3 524.4 207.9C524.4 203.5 525 199.1 526.1 194.6C526.9 190.2 528 186.9 529.4 184.7C529.9 182.6 532.5 178.8 537.1 173.6C544.7 168.3 551.4 163.1 557.2 158.1L567.2 149.4C567.7 148 567.6 145.9 566.8 143.2C565.9 140.4 564.7 139 563 139C561.9 139 560.7 139.7 559.3 141.1C555.4 144.7 549.5 149.7 541.5 156C533.7 161.8 526.5 166.7 519.9 170.6C510.2 175.8 502.6 179.5 497.1 181.8L485.9 185.9L476.3 187.6C474.1 187.8 470.9 188.3 466.6 188.8C462.3 189.3 458.5 189.8 455.2 190.1C446.6 190.6 439.5 190.3 434 189.2C426.2 187.3 420.9 184.8 417.8 181.8C414.8 178.7 412.7 175.5 411.6 172.2C410.5 168.9 409.9 164.6 409.9 159.3C409.9 156.3 410.5 150.6 411.6 142.3C412.1 138.5 414.2 131.8 417.8 122.4C420.3 116.6 423.6 110.4 427.8 103.7C431.9 98.2 436.5 92.9 441.4 88C445.9 83.6 451.4 79.3 458.1 75.1C462.2 72.3 468.4 69.3 476.7 66C484.8 63.8 492.8 62.7 500.8 62.7C507.4 62.7 513.7 63.5 519.5 65.2C528.6 67.4 534.7 70.8 537.7 75.5C539.4 78.3 540.2 80.8 540.2 83C540.2 84.9 539.9 86.6 539.4 88C539.1 92.1 536.7 97.2 532.3 103.3C531.4 104.5 530.5 105.7 529.6 106.9L529.4 107C529.3 107.2 529.1 107.4 529 107.7C525.8 111.8 522.3 115.8 518.6 119.9C518.1 120.8 516.3 122.7 513.2 125.7C512.4 126.5 512 128.1 512 130.3C512 131.9 512.3 133.5 513 134.8C513.7 136.2 514.6 136.9 515.7 136.9C517.1 136.9 518.5 136.2 519.9 134.8C524.3 130.4 528.7 125.5 533.1 119.9C534 118.9 534.8 117.8 535.6 116.7C535.6 116.6 535.6 116.6 535.7 116.6C538.7 113.3 543.5 109 550.2 103.7C554.3 100.4 560 96.5 567.2 92.1C581.3 83 597.9 75.7 617 70.1C629.4 66.8 642.4 65.1 656 65.1C661.5 65.1 665.7 65.3 668.5 65.6C677.8 66.4 686.3 68 693.8 70.5C703.4 73.6 710.6 76.9 715.3 80.5C733.9 92.9 743.1 106.6 743.1 121.6L743.1 121.6Z" fill="#FFFEFF"/><path d="M909.7 256.5C905.5 248.7 900.5 242.3 894.7 237.4C888.6 231.8 881.6 227.2 873.6 223.3L862 219.5C860.7 219.3 859.6 219 858.5 218.8C859.1 218.2 859.7 217.7 860.3 217C863.1 214.6 865.5 210.9 867.6 206C869.6 201.2 870.7 196.4 870.7 191.7C870.7 187.6 869.9 183.6 868.4 179.7C867.8 178.3 867.2 177.1 866.6 175.9C871.6 172.9 876.8 168.4 882.3 162.3C885 159.5 887.8 155.9 890.6 151.5C893.3 148.2 896.4 143.4 899.7 137.4C904.7 127.1 908.2 116.1 910.1 104.2C910.6 99.7 910.9 96 910.9 93C910.9 85.5 909.8 78 907.6 70.5C904.6 62 900.1 55.1 894.3 49.8C888.5 44.8 882.8 41.8 877.3 40.7C872.9 40.1 869.8 39.9 868.2 39.9C864 39.9 859.9 40.3 855.7 41.1C848.2 43 840.4 47 832.1 53.1C826 57.1 819.3 63.2 812.1 71.5C797.9 56.8 782 49.4 764.4 49.4C754.5 49.4 744.2 51.6 733.7 56C720.7 61.8 709 72.1 698.5 86.7C688.2 101.7 680.9 119.8 676.5 141.1C673.1 156 671.5 171.8 671.5 188.4C671.5 195 671.6 200 671.9 203.3C673 223 674.9 239.6 677.7 253.1C681 272.5 686 289.1 692.6 302.9C700.7 321.2 710.6 334.2 722.5 341.9C735 350.8 750.2 355.2 768.2 355.2C790.9 355.2 809.7 349 824.6 336.6C825.4 335.7 826.9 334.4 829 332.6C829.5 332.1 830.1 331.6 830.6 331C833.1 333.6 835.8 335.9 838.7 337.8C844 340.8 849.8 342.3 856.1 342.3C860.3 342.3 864.9 341.7 869.8 340.3C878.7 338.1 887 333.9 894.7 327.8C902.5 322 908.2 314.1 911.8 304.2C914.5 297.8 915.9 290.4 915.9 281.8C915.9 272.6 913.8 264.2 909.7 256.4L909.7 256.5ZM904.7 293.8C902.7 300.4 899 306.8 893.5 312.9C889.1 318.1 882.4 322.3 873.5 325.3C872.2 325.9 870.2 326.4 867.5 326.8C864.9 327.2 862.9 327.6 861.5 327.8C860.1 328.1 858.1 328.2 855.3 328.2C852 328.2 849.5 328 847.8 327.4C843.1 326.1 839 323.4 835.4 319.4C835.3 318.6 835.1 317.9 834.7 317.2C834.2 316 833.3 315.3 832.1 315.1C828.2 309 825.6 302.5 824.6 295.5V289.6C824.6 287.4 824.1 285.7 823.1 284.5C822.1 283.2 821.1 282.6 820 282.6C818.6 282.6 817.5 283.2 816.5 284.5C815.5 285.7 815 287.4 815 289.6C815 300.2 817.1 309.6 821.3 317.9C822 319.2 822.7 320.4 823.4 321.6C814.5 331 802.3 337.1 786.8 339.9C781 340.7 775.1 341.1 769 341.1C756.5 341.1 746.3 339.4 738.3 336.1C730 332.5 723.2 328.1 717.9 322.9C713.5 317.9 709.5 312.2 705.9 305.8C698.2 292.8 692.8 278.3 689.7 262.3C686.1 246.2 683.5 229.9 681.8 213.3C681.3 202.8 681 195.2 681 190.5C681 178 681.7 167.4 683.1 158.5C686.4 137.5 691.9 119.9 699.7 105.8C706.9 92.5 716.4 81.9 728.3 73.9C739.7 66.7 751.2 63.1 762.8 63.1C777.1 63.1 789.6 67.7 800.1 76.8C801.9 78.2 803.5 79.5 804.8 80.7C803.8 81.9 802.7 83.4 801.4 85.1C797.5 90.1 794.5 95.9 792.2 102.5C792 103.6 791.6 105.1 791.2 106.8C790.8 108.7 790.6 110.4 790.6 112C790.6 114.3 791.1 116 792 117.2C793 118.5 794.2 119.1 795.6 119.1C796.7 119.1 797.7 118.6 798.7 117.4C799.6 116.3 800.1 114.8 800.1 112.9C800.7 108.7 801.9 105 803.9 101.7C805.5 98.6 808.2 94.6 811.8 89.6C818.1 81.3 825 74.2 832.5 68.1C837.7 63.1 844.5 59.2 852.8 56.5C858.1 54.5 862.8 53.5 866.9 53.5C873.6 53.5 879.8 55.2 885.6 58.5C890.6 61.8 894 65.6 896 69.7C899.6 76.1 901.4 83.6 901.4 92.1C901.4 101.5 899 112 894.3 123.7C891.6 130.6 886.6 138.7 879.4 148.2C873.6 155.6 867.3 161 860.7 164.3L856.1 166C856 166 855.9 166.1 855.8 166.1C854.7 165.7 852.6 164.9 849.5 163.9C846.7 163.6 843.4 163.5 839.5 163.5C832.3 163.5 825.2 164.9 818 167.6C815.4 168.7 812.9 170.2 810.7 171.8C807.6 172 804.4 171.7 801 171C794 169.6 789.3 167.9 786.8 166C782.4 162.1 779.9 159.6 779.4 158.5C778.3 156.6 777 155.6 775.6 155.6C774.2 155.6 773 156.4 771.9 157.9C770.8 159.4 770.2 161 770.2 162.7C770.2 164.1 770.8 165.6 771.9 167.2C777.1 174.2 782.8 178.9 788.9 181.3C792.2 183 795.6 184.1 799 184.8C798.2 186 797.5 187.5 796.8 189.2C796 190.1 795.6 191.3 795.6 193C795.6 194.9 795.9 196.6 796.6 198.2C797.3 199.7 798.2 200.6 799.3 200.8C802 201.7 804 200.2 805.1 196.3C807 192.2 809.6 188.7 812.8 185.8C813.9 185.6 814.8 185 815.5 183.8C815.5 183.8 815.5 183.8 815.5 183.7C816.3 183.2 817.1 182.7 818 182.2C824.6 178.9 831.8 177.2 839.5 177.2C842.6 177.2 846.3 177.5 850.7 178C851.3 178.3 851.7 178.5 852 178.7C852.3 178.8 853.1 179.1 854.5 179.7H855.3L854.9 180.1C855.1 180.1 855.3 180.2 855.4 180.2C855.6 180.3 855.7 180.4 855.7 180.5L855.4 180.2L856.1 181L857 181.4L858.8 184C860.1 187 860.7 189.7 860.7 191.8C860.7 196.2 858.9 200.8 855.3 205.4L852.8 207.5L848.2 211.7C844.4 214.4 840.5 216.5 836.6 217.9C830.3 220.6 824.6 222.3 819.6 222.9C810.2 224.8 800.3 225.8 789.7 225.8C782 225.8 773.3 225.1 763.6 223.7C762.5 223.4 761.1 223.1 759.5 222.9C757.8 222.6 755.8 222.5 753.6 222.5C752.2 222.5 751.2 223.1 750.3 224.5C749.5 225.9 749.1 227.4 749.1 229.1C749.1 230.8 749.4 232.4 750.1 233.9C750.8 235.4 751.8 236.2 753.2 236.2C762.9 237.8 774.7 238.9 788.5 239.5C798.2 239.5 807.4 238.9 816.3 237.8C823.8 236.4 830.4 234.8 836.2 232.8C837.5 232.3 839.3 231.5 841.8 230.3C842.5 230.9 843.2 231.2 844.1 231.2C847.4 230.9 850.6 231.2 853.6 232L865.7 234.5C874 237.8 880.2 241 884.4 244C890.7 249.3 895.4 254.3 898.5 259C902 264.2 904.5 269.8 905.9 275.6C906.2 277.2 906.3 279.7 906.3 283.1C906.3 286.9 905.8 290.5 904.7 293.8L904.7 293.8Z" fill="#FF4DBB"/><path d="M906.3 283C906.3 286.9 905.8 290.5 904.7 293.8C902.7 300.4 899 306.8 893.5 312.9C889.1 318.1 882.4 322.3 873.5 325.3C872.2 325.9 870.2 326.4 867.5 326.8C864.9 327.2 862.9 327.6 861.5 327.8C860.1 328.1 858.1 328.2 855.3 328.2C852 328.2 849.5 328 847.8 327.4C843.1 326.1 839 323.4 835.4 319.4C835.3 318.6 835.1 317.9 834.7 317.2C834.2 316 833.3 315.3 832.1 315.1C828.2 309 825.6 302.5 824.6 295.5V289.6C824.6 287.4 824.1 285.7 823.1 284.5C822.1 283.2 821.1 282.6 820 282.6C818.6 282.6 817.5 283.2 816.5 284.5C815.5 285.7 815 287.4 815 289.6C815 300.2 817.1 309.6 821.3 317.9C822 319.2 822.7 320.4 823.4 321.6C814.5 331 802.3 337.1 786.8 339.9C781 340.7 775.1 341.1 769 341.1C756.5 341.1 746.3 339.4 738.3 336.1C730 332.5 723.2 328.1 717.9 322.9C713.5 317.9 709.5 312.2 705.9 305.8C698.2 292.8 692.8 278.3 689.7 262.3C686.1 246.2 683.5 229.9 681.8 213.3C681.3 202.8 681 195.2 681 190.5C681 178 681.7 167.4 683.1 158.5C686.4 137.5 691.9 119.9 699.7 105.8C706.9 92.5 716.4 81.9 728.3 73.9C739.7 66.7 751.2 63.1 762.8 63.1C777.1 63.1 789.6 67.7 800.1 76.8C801.9 78.2 803.5 79.5 804.8 80.7C803.8 81.9 802.7 83.4 801.4 85.1C797.5 90.1 794.5 95.9 792.2 102.5C792 103.6 791.6 105.1 791.2 106.8C790.8 108.7 790.6 110.4 790.6 112C790.6 114.3 791.1 116 792 117.2C793 118.5 794.2 119.1 795.6 119.1C796.7 119.1 797.7 118.6 798.7 117.4C799.6 116.3 800.1 114.8 800.1 112.9C800.7 108.7 801.9 105 803.9 101.7C805.5 98.6 808.2 94.6 811.8 89.6C818.1 81.3 825 74.2 832.5 68.1C837.7 63.1 844.5 59.2 852.8 56.5C858.1 54.5 862.8 53.5 866.9 53.5C873.6 53.5 879.8 55.2 885.6 58.5C890.6 61.8 894 65.6 896 69.7C899.6 76.1 901.4 83.6 901.4 92.1C901.4 101.5 899 112 894.3 123.7C891.6 130.6 886.6 138.7 879.4 148.2C873.6 155.6 867.3 161 860.7 164.3L856.1 166C856 166 855.9 166.1 855.8 166.1C854.7 165.7 852.6 164.9 849.5 163.9C846.7 163.6 843.4 163.5 839.5 163.5C832.3 163.5 825.2 164.9 818 167.6C815.4 168.7 812.9 170.2 810.7 171.8C807.6 172 804.4 171.7 801 171C794 169.6 789.3 167.9 786.8 166C782.4 162.1 779.9 159.6 779.4 158.5C778.3 156.6 777 155.6 775.6 155.6C774.2 155.6 773 156.4 771.9 157.9C770.8 159.4 770.2 161 770.2 162.7C770.2 164.1 770.8 165.6 771.9 167.2C777.1 174.2 782.8 178.9 788.9 181.3C792.2 183 795.6 184.1 799 184.8C798.2 186 797.5 187.5 796.8 189.2C796 190.1 795.6 191.3 795.6 193C795.6 194.9 795.9 196.6 796.6 198.2C797.3 199.7 798.2 200.6 799.3 200.8C802 201.7 804 200.2 805.1 196.3C807 192.2 809.6 188.7 812.8 185.8C813.9 185.6 814.8 185 815.5 183.8C815.5 183.8 815.5 183.8 815.5 183.7C816.3 183.2 817.1 182.7 818 182.2C824.6 178.9 831.8 177.2 839.5 177.2C842.6 177.2 846.3 177.5 850.7 178C851.3 178.3 851.7 178.5 852 178.7C852.3 178.8 853.1 179.1 854.5 179.7H854.9L855.1 179.9L854.9 180.1C855.1 180.1 855.3 180.2 855.4 180.2L856.1 181L857 181.4L858.8 184C860.1 187 860.7 189.7 860.7 191.8C860.7 196.2 858.9 200.8 855.3 205.4L852.8 207.5L848.2 211.7C844.4 214.4 840.5 216.5 836.6 217.9C830.3 220.6 824.6 222.3 819.6 222.9C810.2 224.8 800.3 225.8 789.7 225.8C782 225.8 773.3 225.1 763.6 223.7C762.5 223.4 761.1 223.1 759.5 222.9C757.8 222.6 755.8 222.5 753.7 222.5C752.3 222.5 751.2 223.1 750.3 224.5C749.5 225.9 749.1 227.4 749.1 229.1C749.1 230.8 749.4 232.4 750.1 233.9C750.8 235.4 751.8 236.2 753.2 236.2C762.9 237.8 774.7 238.9 788.5 239.5C798.2 239.5 807.5 238.9 816.3 237.8C823.8 236.4 830.4 234.8 836.2 232.8C837.5 232.3 839.3 231.5 841.8 230.3C842.5 230.9 843.2 231.2 844.1 231.2C847.4 230.9 850.6 231.2 853.7 232L865.7 234.5C874 237.8 880.2 241 884.4 244C890.7 249.3 895.4 254.3 898.5 259C902 264.2 904.6 269.8 905.9 275.6C906.2 277.2 906.3 279.7 906.3 283.1V283Z" fill="#FFFEFF"/></svg>