<svg width="853" height="972" viewBox="0 0 853 972" fill="none" xmlns="http://www.w3.org/2000/svg"><path d="M798 135.2C797.8 135.2 797.7 135.2 797.6 135.2C791.8 135.2 786.1 136.2 780.6 138.1C780.5 138.1 780.5 138.1 780.4 138.2C765.8 143.3 751.9 149.2 738.5 155C733.6 157.1 729 159 724.3 161C719.4 163 714.7 165.4 710.2 168C702.7 172.5 694.3 169.1 689.9 159.8C687.1 153.9 684.2 148.3 681.4 143.1C675.2 131.5 667.2 122.8 660.1 115.2C659.3 114.2 658.4 113.3 657.5 112.4C657.5 112.3 657.5 112.3 657.4 112.2C656.4 111.1 655.3 110.1 654.2 109.1C652.4 107.4 651.6 105.3 652.6 104.2C653.1 103.5 653.7 102.8 654.2 102.1C656 99.7 659.2 96.8 662.8 93.4C667.2 89.4 672.6 84.5 677.9 78.3C687.6 67 691.1 51.6 687.2 37.2C686.7 35.2 686.1 33.2 685.4 31.2C680.2 16 667.3 4.7 651.5 1.6C646.3 0.5 640.3 0 633.6 0C631.9 0 629.4 0 626.8 0.2C626.8 0.2 624.4 0.3 624.3 0.3C620.1 0.5 615.8 0.9 610.8 1.6C610.4 1.7 610 1.8 609.6 1.9C608.9 2 607.9 2.1 607.3 2.2C606.9 2.2 606.6 2.3 606.2 2.3C605.9 2.3 605.4 2.4 604.9 2.5C602.5 2.7 600.2 3.1 597.8 3.7C558.4 13.7 525.9 31.3 501 56C487.5 69.5 476.3 84.9 467.5 102.3C455 126.8 447.4 144.4 443.1 139.1C440.6 136 437.9 132.9 435.1 129.8C427.3 121.4 412.1 111.7 394.7 111.7C383.5 111.7 372.7 115.7 364.3 122.9C364.2 123.1 364 123.3 363.8 123.4C353.4 132.7 348.7 144.1 346 151.9C346 152 346 152.1 345.9 152.2C343.3 160.1 341 167.8 338.8 175.3C334.8 189 330.9 202 325.9 213C314.4 238.2 291.8 255.7 261.2 277C259.9 277.9 258.5 278.9 257.2 279.8C243.1 292.6 225 300.9 209.1 287.3C203.1 282.8 198.6 275.2 191.7 271.4C189.9 270.2 188 269 186 267.9C178.1 263.7 169.3 261.4 160.3 261.4C152.7 261.4 145 263 137.6 266.1C125.4 271.1 114.4 279.9 103.9 292.9C102.2 295 100.5 297.3 98.6 299.8C95.6 303.9 92.9 308.2 90.7 312.8C89.3 315.5 88.2 318.2 87.2 321C85.5 325.6 78.2 332.7 72.2 338.9C68.6 342.6 65.5 347 63.2 351.8C61.5 355.1 60.2 358.5 59.2 362C57.5 367.9 56.2 373.4 55.2 374.2C54.6 374.6 54 375.1 53.4 375.6C49 379.3 45.3 383.5 42.3 388.1C40.3 391.2 38.6 394.6 37.1 398.4C36.1 401.1 35.3 404 34.7 406.9C33.8 411.6 29.2 419.2 25.2 424.9C22.8 428.2 20.8 431.9 19.2 435.9C17.6 439.8 16.5 443.9 15.8 448.1C14.6 455 9.9 467.8 6.5 477.8C4.1 484.5 2.8 491 1.9 496.3C1.4 499.7 0.9 503.1 0.5 506.6C0 511.4 -0.1 516.1 0.1 520.6C0.3 526.5 1.3 532.3 2.8 537.6C5.9 548.3 11.9 557.5 20.1 564.3C20.9 565 21.7 565.6 22.5 566.2C23.9 567.2 24 568.7 22.8 569.6C22 570.2 21.3 570.8 20.6 571.4C13.9 577.2 8.6 584.6 5.1 593.3C2.4 599.8 0.8 607 0.3 614.8C-0.2 621.3 0.3 628.3 1.5 635.5C2.9 643.7 5.5 651.3 9.1 658.2C10.1 660 11.2 661.9 12.3 663.6C14.2 666.5 14.5 675.2 15.3 683.2C15.7 688 16.8 692.8 18.6 697.4C22.1 706.5 27.6 714.4 35 721.1C39.3 724.9 44 728.1 49 730.5C57.5 734.5 62.1 741.4 60.8 749.4C60 754.2 59.8 759.1 60.2 764.1C61 772.3 63.5 780.4 67.7 788.4C70.8 794.2 74.7 799.9 79.9 805.8C83.4 809.8 87.4 813.7 91.8 817.4C96.7 821.6 102.2 825.3 108 828.4C109.5 829.2 111.1 830 112.6 830.7C115.2 831.9 118.2 841.7 123.5 851C126.6 856.5 130.8 861.4 136 865.5C139.1 867.9 142.2 870 145.6 871.8C151.2 874.7 156.7 877.5 157.5 879C158 879.9 158.5 880.7 159 881.6C161.9 886.2 165.3 890.3 169.2 893.7C171.7 896 174.6 898.1 177.9 900.1C182.5 902.9 187.7 904.9 193.3 906.3C193.5 906.3 193.7 906.4 194 906.4C194.4 906.5 197.6 911.4 202.7 916.1C205.7 919 209 921.4 212.7 923.5C216.3 925.6 220 927.2 223.9 928.5C230.4 930.6 240.1 936.9 247.2 941.8C251.4 944.8 256.2 947.1 261.3 948.6C266.7 950.3 272.6 951.1 279.2 951.3C279.7 951.3 280.3 951.3 280.8 951.3C281.2 951.3 281.7 951.3 282.1 951.3C282.9 951.3 287.1 954.4 292.3 957.2C295.4 958.8 298.6 960.2 302 961.2C305.5 962.3 309.2 963 313 963.5C315.1 963.7 317.2 963.8 319.3 963.8C322.8 963.8 326.3 963.5 329.7 962.9C330.4 962.8 331.1 962.6 331.8 962.5C332.9 962.2 334 962.1 334.2 962.2C334.3 962.2 334.4 962.3 334.5 962.4C340.5 965.3 347.3 967.6 355.3 969.2C361.5 970.5 368.4 971.3 376.5 971.7C378.4 971.8 380.4 971.9 382.4 971.9C385.3 971.9 388.2 971.8 391.2 971.6C395.6 971.2 399.9 970.8 404 970.1C408.5 969.4 412.9 968.5 417 967.3C417.7 967.1 418.5 966.9 419.2 966.7C420.4 966.4 426 968.2 432.1 969.5C435.7 970.2 439.5 970.6 443.3 970.6C447.1 970.6 450.7 970.3 454.4 969.6C458.4 968.8 462.3 967.7 465.9 966.2C472 963.6 477.3 960.6 478.5 960.8C479.3 960.9 480 961 480.7 961.1C483.4 961.4 486.1 961.5 488.8 961.5C493.5 961.5 498.3 961.1 503 960.1C513.4 958.1 522.4 953.7 529.8 947C531.2 945.7 532.5 944.4 533.7 943C535.7 940.8 537.4 938.7 537.6 938.7C537.7 938.7 537.9 938.7 538 938.7C543.8 938.6 549.5 937.9 554.9 936.8C560.2 935.7 565.2 934.2 569.9 932.4C574.3 930.8 578.1 929.1 581.3 927.3C589 923.2 595.6 918.1 600.9 912.2C602.4 910.6 603.7 908.9 605 907.1C607 904.2 608.7 901.5 609 901.5C609.2 901.4 609.4 901.4 609.6 901.4C625.4 897.9 636.8 889.4 643.6 884.3C644.1 883.9 644.6 883.5 645.1 883.2C645.6 882.8 646.1 882.4 646.6 882C648.5 880.5 650.5 878.9 652.8 876.9C656.5 873.8 660 870.3 663.1 866.7C664.8 864.7 666.4 862.6 667.9 860.5C670.4 856.9 679.3 851.9 686.8 847C691.2 844.1 695.3 840.5 699 836.4C701.5 833.4 703.8 830.2 705.6 827C708.7 821.5 710.6 816.2 711 816C711.3 815.9 711.6 815.7 711.9 815.6C718.9 811.9 725.2 807.1 730.6 801.2C737.4 793.7 742 785.4 744.2 776.3C744.4 775.4 744.6 774.5 744.8 773.6C745 772.1 751.6 764.9 757.1 755.8C760.2 750.6 763 744.8 765.4 738.3C766.3 735.8 767.2 733.1 768.2 730.3C769.7 725.7 770.8 720.9 771.5 716.1C772.4 710.3 772.6 704.6 772.1 699.1C771.2 688.1 767.2 677.8 760.5 669.3C759 667.4 757.4 665.7 755.6 663.9C753.8 662 751.7 660.1 749.2 658C739.6 651 728.3 642 728.3 633.7C727.5 623.1 742.6 614.1 752.8 606C754.4 604.8 755.9 603.6 757.4 602.4C758.8 601.1 760.2 599.9 761.5 598.8C761.6 598.8 761.6 598.7 761.6 598.7C786.3 577 802.9 549.3 811.1 516.4C818 488.4 818.1 459.7 817.4 435.2C817 424.2 813.2 413.9 805.9 404.6C805.9 404.6 805.9 404.5 805.8 404.5C805 403.5 804.2 402.5 803.4 401.6C802 400 807.8 380.6 808.4 357.1C808.8 343.5 807.3 329.4 803.9 314.9C802.3 308.1 800.4 301.6 798.7 295.9C798.1 294.2 797.6 292.5 797.1 290.7C797.1 290.7 797.1 290.7 797.1 290.6C794.1 280.4 793.1 269.5 814.1 249.4C816.2 247.4 818.5 245.3 820.9 243.2C825.8 238.8 831.3 233.8 836.7 228.1C837.5 227.2 838.2 226.4 838.7 225.8C839.1 225.5 839.4 225.1 839.7 224.7C853.1 208.4 855.9 185.4 846.8 166.3C837.8 147.1 819.1 135.2 798 135.2L798 135.2Z" fill="white"/><path d="M673.6 458.3C679.4 448.6 684.3 438 691.4 429.2C701.7 416.2 715.2 405.7 724.3 392C743.4 363.3 745.1 330.9 736.1 298.5C729.4 274.5 740.4 218.9 769.5 201.3C775.7 197.5 783.1 195.8 790 193.2C791 194.9 792.1 196.6 793.1 198.4C784.9 205.9 777.1 213.9 768.4 220.8C744 240.1 742.7 264.6 749.7 292.4C759.9 333.2 759.8 372.9 729.9 406.8C722.1 415.6 712.2 422.5 703.9 431C694.7 440.3 686.1 450.4 677.3 460.1C676 459.5 674.8 458.9 673.6 458.3L673.6 458.3Z" fill="#085FFC"/><path d="M626.1 337.9C609.7 340.7 595.6 327.1 598.9 311C601.3 299.4 607 288 613.4 277.9C636.7 241.6 649.6 213.5 624.6 175C622.4 171.6 623.8 165.8 623.5 161.2C627.3 163.8 632.3 165.7 634.8 169.3C650.2 192.3 663.2 216.3 648.8 244.6C643.2 255.6 635.3 265.4 628.3 275.6C626.8 277.8 624.6 279.5 622.8 281.5C602.1 305.3 602.5 316.4 626.1 337.9V337.9Z" fill="#085FFC"/><path d="M406.3 702.5C430.2 693.2 455.4 702 476 684.1C494.8 667.7 510.7 649.6 519.4 626C522.1 618.4 523.2 610.2 526.3 602.8C526.4 602.4 526.6 602.1 526.8 601.8C530.1 596.9 537.7 598.6 539.5 604.2C539.8 605.2 540 606.2 539.9 607.1C537.1 633 520.4 651.9 506.9 672.6C488.2 701.4 459.8 708.1 428.6 708.3C421.1 708.3 413.7 704.5 406.3 702.5L406.3 702.5Z" fill="#085FFC"/><path d="M611.2 62.5C598.3 79 585.7 95.6 572.5 111.8C556.5 131.4 548.4 154.3 546.7 178.8C546 188.4 552.9 198.7 557.1 208.4C559.1 212.8 562.7 216.5 566.2 221.3C550.2 225 539.4 217 535.7 201.8C530.7 181.2 535.7 161.9 544.9 143.9C557.1 119.9 570 96.2 584.2 73.4C588.8 66 598.3 61.6 605.6 55.8C607.5 58.1 609.4 60.3 611.2 62.5Z" fill="#085FFC"/><path d="M395.4 695.8C386 695.8 374.9 699 367.4 695.2C347.4 685.1 328.5 672.6 310.1 659.7C291.6 646.8 284.8 625.7 276.9 605.9C276.6 605.1 276.5 604.4 276.5 603.6C276.3 596.1 286.6 593 290.7 599.2C291 599.7 291.3 600.1 291.5 600.6C302.9 625.7 312.8 651.8 339.7 665.1C356.5 673.4 373.7 680.9 390.8 688.9C392.6 689.7 394.1 691 395.8 692.1C395.7 693.3 395.6 694.6 395.5 695.8L395.4 695.8Z" fill="#085FFC"/><path d="M343.4 450.4C345.8 448.8 348.4 448 351 447.9C352.3 447.8 353.6 447.9 354.8 448.2C359.9 449.3 362.9 451.6 364.8 454.4C365.4 455.4 365.9 456.4 366.3 457.5C371.9 471.4 371.9 484.5 372.6 496.1C372.7 497.6 372.7 499.1 372.8 500.6C372.9 504.8 372.9 508.9 372.7 513.1C372.6 514.4 372.5 515.8 372.4 517.2C371.8 530 368.6 539.8 363.7 553.9C363.1 555.2 362.4 556.5 361.8 557.8C358.4 564.2 354.2 569.7 346.6 570.7C345.3 570.9 344 570.9 342.9 570.8C338.1 570.2 334.8 567.1 336.1 559.3C339.3 556 342.6 552.8 348 551.5C349 551 349.9 550.6 350.8 550.1C351.5 549.4 352.2 548.7 352.8 548C354.1 546.5 354.9 545.1 355.1 543.5C357.4 522.5 359.5 501.2 359 480.1C359 478.7 358.9 477.3 358.9 475.9C358.9 468.2 355.6 464.9 351.3 458.2C350.6 457.6 349.7 456.9 348.8 456.2C347.9 455.5 346.9 454.9 345.8 454.1C345 453 344.1 451.8 343.4 450.4L343.4 450.4Z" fill="#085FFC"/><path d="M440.7 284.5C425.2 292.4 418.1 286 415.7 277.9C411.4 263.8 409.8 248.9 407.2 234.3C404.7 220.3 401.9 206.3 399.9 192.2C399.3 188.7 401.2 184.9 402 181.2C405 183 409.9 184.2 410.6 186.6C414.6 200.3 419.2 214.2 420.6 228.4C422.6 248.3 413.3 270.7 440.7 284.5L440.7 284.5Z" fill="#085FFC"/><path d="M781.2 199.4C774.1 206 768.8 210 764.7 215C742.8 241.3 733.8 270.1 741.5 305.1C752 352.6 747.6 396.9 702.7 427.6C696.9 431.6 691.9 436.8 687.3 442C678.2 452.1 671.2 462.8 680.2 476.8C688.5 489.6 701.9 493.3 714.1 489C725.6 485 735.2 475.1 745 467.1C749.5 463.5 752.6 458.2 760 454.7C758.4 466.3 758.2 478.4 754.9 489.6C745.7 521 729.9 547.3 699.5 563.8C673 578.1 652 599.1 636.9 625.8C632.3 633.9 626.2 641.2 620 650.1C627.5 613.8 638.1 580.2 640.4 546.1C642.1 519.8 635.7 492.3 628.7 466.5C615.9 418.6 583.6 383.6 545.7 353.5C519.8 332.9 489.7 323.2 457 322.1C433.8 321.4 410 319.8 387.3 323.5C345.8 330.3 305.8 342.7 273.9 372.8C269.7 376.8 264.6 379.9 259.8 383.5C253.4 362.2 267.6 346.2 283.9 333C305.2 315.6 327.5 299.3 348.6 281.7C372.9 261.4 388.4 234.9 398 204.9C399.7 199.5 402.1 194.3 405.9 184.4C414.6 211.3 416.3 233.8 412 256.8C409.2 271.6 416.8 281.5 428.2 287.3C439.7 293.2 453.1 293 462.7 282.6C470.8 274 479.2 264.4 483.1 253.7C491.2 231.4 498.3 208.5 502.1 185.2C508.5 146.4 521.8 111.8 553.8 87.6C567.9 76.9 584.8 70 600.5 61.3C601.5 63 602.4 64.6 603.4 66.2C590 82.2 573.9 96.6 564 114.5C552.8 134.8 544.5 157.7 540 180.5C535.4 204.2 546.5 219 565.5 225C584.8 231.1 602.2 223.5 613.5 201.7C619.1 190.9 621.5 178.4 625.1 167.4C650.8 191.7 652 237 626.7 263.7C620.4 270.3 614.6 277.6 609.8 285.4C598 304.4 599.4 321.2 613 334.1C625 345.4 648.7 346 664.5 335.6C689.9 318.9 699.6 292.7 707.4 265.5C717.6 229.4 740.3 207.2 781.1 199.4H781.2Z" fill="#FD7EE2"/><path d="M626.2 525.1C621.6 559.7 619.1 591.6 612.7 622.7C605.9 655.2 589.7 683.4 564.7 706.6C538.5 730.8 512.3 753.6 478.5 768.1C427.6 789.9 377.3 789.1 326.8 771.2C285.9 756.7 251.5 731.4 224.9 696.7C199.5 663.5 193.5 623.5 191.2 583.6C186.2 498.4 221.3 430.5 288 379C301.6 368.5 318.9 362.3 335.2 355.7C355 347.7 375.2 336.9 395.9 335.2C454.4 330.4 509.6 335.8 554.5 383.8C578.3 409.1 596.5 437 612.1 466.5C621.5 484.3 622.1 506.8 626.2 525.1V525.1Z" fill="#F9FF06"/><path d="M616.3 649.2C619.5 623.1 621.9 598.6 625.7 574.3C632 533.5 633.3 492.6 614.7 455.1C595.3 416.2 566.7 384 532.2 356.6C510.9 339.6 487.2 334.1 461.8 332.4C425.2 330 388.2 324.8 352.7 339.3C337.7 345.3 323.4 352.7 308.4 358.7C303.3 360.7 297.1 360.2 288.1 361.2C283.9 367.6 278.6 377.7 271.4 386.2C267.8 390.5 260.6 391.9 255.1 394.5C255.5 388.6 253.6 380.4 256.8 376.9C276.7 355.3 293 327.7 323.5 320.3C353.6 313 372.7 295.6 385.4 269C388.1 263.5 389.6 257.4 392.3 249.9C396.4 262.4 399.4 273.7 403.7 284.5C408.5 296.8 416.1 304.3 431.6 303.6C480.2 301.1 498.7 283.7 507 234.9C512.7 201.8 512.8 166.6 534.6 137.8C536.1 135.8 537.6 133.8 541.6 132.9C538 142.9 533.8 152.7 530.9 162.8C528.1 172.5 525.4 182.6 524.9 192.6C523.6 219.1 532.1 231.7 556.1 241.7C576.2 250.1 594.4 246.3 610.5 229.1C615.4 223.8 618.1 216.5 621.7 210.3C633.1 236.6 627 258 603.2 275.1C582.6 289.8 576.5 305.4 583.4 329.7C585.3 336.4 589.6 344.9 595.2 347.7C631.9 365.7 682.5 367.5 702.2 313.3C707.9 297.5 716 282.5 724.6 263.9C731.6 299.4 733.2 331.5 716.8 360.9C703.2 385.1 686.5 407.6 670.8 430.5C658.8 448 657.4 473.5 668.3 488.5C685 511.4 704.1 514.3 733 497.7C731.8 517.4 716.2 525.3 703.3 531C673.2 544.3 663 572.4 648.9 598.5C653.6 594 658.1 589.3 663.1 585.1C682 569.3 700.6 553 720.1 538C736 525.7 745.3 510.8 747 490.7C748.1 476.9 750.2 463.3 754.6 449.6C765.7 465.7 764.4 482.9 759.5 499.7C747.7 539.9 723.9 569.5 684.8 587.8C671.3 594.1 660.8 609.3 652.2 622.5C643.8 635.2 635.8 646 616.3 649.2H616.3Z" fill="#FA60D5"/><path d="M797.9 180.4C797 180.4 796.3 180.6 795.5 180.8C777.3 187.3 759.6 195.3 741.7 202.8C720.2 211.8 708.1 229.4 699.6 249.8C692 268.2 686 287.2 678.2 305.5C675.6 311.8 670.9 317.7 665.7 322.2C650.2 335.6 630.7 336 618.8 324.2C609.6 315.1 613.3 298.3 627.6 282.8C634.9 274.9 642.7 267.3 648.8 258.5C671.7 225.4 657.4 194.4 641.4 164.3C637.5 156.9 631.3 150.8 624.2 142.9C621 139.6 615.4 140.9 614.1 145.3C613.2 148.1 612.6 150.1 612 152.2C608 166.7 604.5 181.4 599.9 195.8C595.3 210.2 584.2 216.4 569.5 213.1C556.5 210.3 553.2 200.9 553.5 188.7C554.5 153 572.3 125.2 594.8 99.6C600.3 93.5 605.9 87.3 611.5 81.2C612.4 80.2 613.3 79.2 614.2 78.2C614.9 77.7 615.5 77.1 616.1 76.6C616.7 76 617.4 75.5 618 74.9C625.7 64.7 635.4 58.2 643.5 48.8C643.2 47.8 642.9 46.9 642.6 45.9C638.7 45.2 632.2 45.2 629.2 45.4C628.2 45.5 627.2 45.5 626.2 45.5C623.3 45.7 620.5 46 617.4 46.4C616.2 46.8 615.1 47 614 47.2C613.2 47.2 612.5 47.3 611.8 47.2C611 47.3 609.7 47.5 609 47.5C547.1 63.3 506.6 100.5 492.9 166C487.2 193.4 479.1 220.4 471.6 247.5C467 263.8 453.1 276.1 442.8 273.4C424.1 268.5 427.9 254.3 429.4 240.6C432.5 209.8 422.8 183.1 401.9 160.6C400 158.5 394.9 156.3 393.9 157.1C391.5 159.3 390 163.1 388.9 166.4C381.6 188.2 376.5 211 367 231.8C349.6 270 316.3 294 282.9 317.1C254.9 336.4 235.2 359.4 241.5 396.6C242.2 400.8 238.7 406.2 235.9 410.3C216.1 439.8 193.5 467.9 184.3 503.3C172.3 549.9 174.5 596.3 184.9 643C196.8 696.1 229.1 735 273.6 761.7C318 788.3 367.7 801.9 420.9 796.5C464.8 792 506.7 779.4 541.1 752.8C570 730.4 593.9 701.3 618.8 674C631.4 660.2 640.9 643.5 652.3 628.5C666.4 610.2 679.5 591.1 703.4 583C713.8 579.4 723.3 572 731.7 564.7C770.8 530.3 773.6 483.9 772.1 436.6C772 435.2 771.3 433.8 770.1 432.4C766.4 427.6 759 427.5 755.1 432.2C746.3 442.9 738.6 452.6 729.6 460.8C722.2 467.5 711.9 471.5 702.2 474.6C698.7 475.7 690.8 471.7 689.4 468.2C688.1 464.9 691.5 458.1 694.9 454.8C703.2 446.4 712.3 438.6 721.7 431.3C757.1 404 770 368.8 759.8 325.2C758.1 317.8 755.7 310.6 753.6 303.4C743.1 267.6 758 240.4 782.9 216.6C789.8 210 797.3 203.8 803.9 196.8C804.2 196.5 804.4 196.2 804.6 196C809.6 189.9 805.6 180.3 797.9 180.4L797.9 180.4ZM612.7 622.7C605.9 655.2 589.7 683.4 564.7 706.6C538.5 730.8 512.3 753.6 478.5 768.1C427.6 789.9 377.3 789.1 326.8 771.2C285.9 756.7 251.5 731.4 224.9 696.7C199.5 663.5 193.5 623.5 191.2 583.6C186.2 498.4 221.3 430.5 288 379C301.6 368.5 318.9 362.3 335.2 355.7C355 347.7 375.2 336.9 395.9 335.2C454.4 330.4 509.6 335.8 554.5 383.8C578.3 409.1 596.5 437 612.1 466.5C621.5 484.3 622.1 506.8 626.2 525.1C621.6 559.7 619.1 591.6 612.7 622.7V622.7ZM764.7 215C742.8 241.3 733.8 270.1 741.5 305.1C752 352.6 747.6 396.9 702.6 427.6C696.9 431.6 691.9 436.8 687.3 442C678.2 452.1 671.2 462.8 680.2 476.8C688.5 489.6 701.9 493.3 714.1 489C725.6 485 735.2 475.1 745 467.1C749.5 463.5 752.6 458.2 760 454.7C758.4 466.3 758.2 478.4 754.9 489.6C745.7 521 729.9 547.3 699.5 563.8C673 578.1 652 599.1 636.9 625.8C632.3 633.9 626.2 641.2 620 650.1C627.5 613.8 638.1 580.2 640.4 546.1C642.1 519.8 635.7 492.3 628.7 466.5C615.9 418.6 583.6 383.6 545.7 353.5C519.8 332.9 489.6 323.2 457 322.1C433.8 321.4 410 319.8 387.3 323.5C345.8 330.3 305.8 342.7 273.9 372.8C269.7 376.8 264.6 379.9 259.8 383.5C253.4 362.2 267.6 346.2 283.9 333C305.2 315.6 327.5 299.3 348.6 281.7C372.9 261.4 388.4 234.9 398 204.9C399.7 199.5 402.1 194.3 405.9 184.4C414.6 211.3 416.3 233.8 412 256.8C409.2 271.6 416.8 281.5 428.1 287.3C439.7 293.2 453.1 293 462.7 282.6C470.8 274 479.2 264.4 483.1 253.7C491.1 231.4 498.3 208.5 502.1 185.2C508.5 146.4 521.8 111.8 553.8 87.6C567.9 76.9 584.8 70 600.5 61.3C601.5 63 602.4 64.6 603.4 66.2C590 82.2 573.9 96.6 564 114.5C552.8 134.8 544.5 157.7 540 180.5C535.4 204.2 546.5 219 565.5 225C584.8 231.1 602.2 223.5 613.5 201.7C619.1 190.9 621.5 178.4 625.1 167.4C650.8 191.7 652 237 626.7 263.7C620.4 270.3 614.6 277.6 609.8 285.4C598 304.4 599.4 321.2 613 334.1C625 345.4 648.6 346 664.5 335.6C689.9 318.9 699.6 292.7 707.4 265.5C717.6 229.4 740.3 207.2 781.1 199.4C774.1 206 768.8 210 764.6 215H764.7Z" fill="#085FFC"/><path d="M657.5 718.2C654.9 716.6 652.5 714.2 650 710.8C647.6 707.5 645.6 703.3 644.1 698.4C642.6 693.5 641.7 687.8 641.7 681.4C641.6 675.1 642.8 668.3 645.4 661.2C646.5 658.3 648 656.1 649.8 654.5C651.6 653 654 652.6 657 653.3C660 654.1 664.4 656.1 670.2 659.2C677 662.8 683.5 666.9 690.1 670.9C693.7 673.1 697.3 675.5 701 678.2C704.8 680.8 708.2 683.3 711.4 685.8C714.6 688.2 717.4 690.4 719.8 692.4C722.2 694.5 724 696.1 725 697.4C726.2 698.9 726.8 700.7 727 702.8C727.2 704.8 727.1 707 726.7 709.3C726.4 711.7 725.8 714 725.1 716.2C724.4 718.5 723.6 720.6 722.9 722.4C719.9 730.7 716.4 736.3 712.6 739.3C708.8 742.4 705 742.8 701.2 740.8C699.9 740.1 698.9 739.3 697.9 738.4C696.9 737.5 696.1 736.4 695.6 735.2C695 734 694.7 732.7 694.7 731.3C694.6 729.9 695 728.3 695.6 726.7C696.2 725.2 697.2 723.9 698.7 722.9C700.1 721.9 701.6 720.8 703.1 719.8C704.5 718.8 705.9 717.5 707.1 716.2C708.4 714.9 709 713.1 709.2 710.9C709.2 710 708.7 709.1 707.6 708C706.5 706.9 705.2 705.9 703.8 705C702.4 704 701.1 703.2 699.8 702.6C698.5 702 697.9 701.8 697.7 702.1C697.2 703.6 696.8 705.1 696.7 706.7C696.6 708.3 696.2 710 695.5 711.7C693.5 717 690.3 718.5 685.9 715.8C684.5 715 683.4 713.8 682.7 712.1C681.9 710.5 681.9 708.5 682.8 706.4C683.2 705.2 683.9 703.9 684.9 702.6C685.8 701.3 686.8 699.4 687.8 696.8C687.9 696.6 687.3 696.2 686.2 695.6C685 695 683.7 694.5 682.2 694.1C680.6 693.7 679.1 693.7 677.6 693.9C676.1 694.2 675 695.1 674.5 696.7C674.1 697.7 673.7 699.1 673.3 700.7C672.9 702.4 672.5 704.2 672 706.1C671.6 708 671.1 709.8 670.7 711.6C670.2 713.5 669.7 715.1 669.1 716.6C668.9 717.3 668.5 718.1 668.1 718.8C667.6 719.6 667 720.2 666.2 720.6C665.4 721 664.3 721 662.9 720.8C661.5 720.5 659.7 719.6 657.5 718.2L657.5 718.2Z" fill="#085FFC"/><path d="M642 802.9C638 799.2 634.2 794.9 630.7 789.8C627.1 784.7 623.9 779.5 621.2 774C618.5 768.6 616.4 763.3 614.8 757.7C613.1 752.2 611.8 746.7 611.1 741.4C610.9 739.6 610.8 737.8 610.9 736C610.9 734.2 611.4 732.6 612.4 731.1C613.2 730.1 614.2 729.3 615.5 728.8C616.7 728.4 618 728 619.3 727.9C624.6 727.4 630.5 727.7 637.1 728.8C643.7 730 650.4 731.8 657.1 734.1C663.8 736.5 670.3 739.3 676.4 742.5C682.6 745.7 688 749.2 692.5 753.1C694.2 754.6 695.8 756 697.1 757.3C698.5 758.7 699.4 760.1 699.9 761.4C700.4 762.8 700.5 764.2 700.2 765.7C699.8 767.2 698.8 768.8 697.2 770.5C695.4 772.5 693.2 774.2 690.8 775.5C688.4 776.7 685.9 777.5 683.3 777.7C680.6 777.9 677.9 777.6 675.2 776.7C672.4 775.8 669.8 774.2 667.2 771.9C666 770.8 664.9 769.6 663.8 768.5C662.8 767.2 661.6 766.1 660.3 764.9C658.6 763.4 656.5 761.9 654.1 760.7C651.7 759.5 649.3 758.6 646.8 758.1C644.3 757.5 641.9 757.5 639.6 757.9C637.3 758.3 635.4 759.3 633.8 761C632.5 762.4 631.9 763.9 632.1 765.6C632.3 767.3 632.8 769 633.9 770.8C634.9 772.5 636.1 774.2 637.4 775.8C638.8 777.4 640.1 778.7 641.3 779.7C642.9 781.3 644.7 782.6 646.6 783.8C648.5 785 650.4 786.2 652.4 787.4C654.4 788.5 656.3 789.7 658.1 790.8C660 792 661.7 793.3 663.2 794.6C665.5 796.7 666.8 798.7 667.1 800.6C667.4 802.5 666.6 804.5 664.7 806.7C663.1 808.6 661.3 809.8 659.4 810.3C657.5 810.8 655.6 810.8 653.6 810.2C651.7 809.6 649.7 808.7 647.7 807.4C645.7 806.1 643.8 804.6 642.1 802.9L642 802.9Z" fill="#085FFC"/><path d="M558.4 816.4C556.8 814.2 555.7 811.3 555.1 807.8C554.5 804.2 554.7 800.2 555.8 795.8C556.9 791.3 559.1 786.6 562.4 781.6C565.7 776.7 570.6 771.8 577 767C579.7 765.1 582.4 763.8 585 763C587.6 762.2 590.1 762.4 592.5 763.7C595 765 598.2 767.7 602.1 771.7C606 775.6 610.2 780.9 614.9 787.4C617.1 790.5 619.3 793.9 621.4 797.6C623.5 801.4 625.4 805.1 627.1 808.7C628.8 812.2 630.3 815.5 631.4 818.6C632.6 821.7 633.3 824.1 633.6 825.8C633.9 827.7 633.5 829.7 632.6 831.6C631.6 833.5 630.3 835.3 628.7 837.1C627.1 839 625.4 840.7 623.5 842.3C621.6 843.9 619.8 845.4 618.2 846.7C612.7 850.8 606.8 855.6 600 857.1C595 858.1 591.2 856.8 588.6 853.2C587.7 852 587.1 850.8 586.6 849.5C586.1 848.2 585.9 846.9 586 845.6C586 844.2 586.4 842.9 587.1 841.5C587.7 840.2 588.8 838.9 590.2 837.7C591.6 836.5 593.2 835.8 595.1 835.5C597 835.2 598.9 834.9 600.8 834.6C602.8 834.3 604.7 833.8 606.6 833.2C608.4 832.5 610 831.3 611.3 829.4C611.8 828.7 611.8 827.6 611.3 826.1C610.9 824.6 610.2 823.2 609.4 821.7C608.5 820.3 607.7 819 606.8 817.9C605.9 816.8 605.4 816.4 605.1 816.6C603.7 817.6 602.6 818.9 601.6 820.2C600.7 821.5 599.4 822.8 597.9 824.1C593.1 828 589.4 828 586.5 824C585.6 822.7 585.2 821.2 585.4 819.5C585.5 817.8 586.5 816.1 588.4 814.5C589.5 813.6 590.9 812.8 592.5 812C594.1 811.3 596 810 598.4 808.1C598.6 808 598.3 807.5 597.5 806.5C596.7 805.6 595.7 804.7 594.4 803.8C593.2 802.9 591.7 802.4 590.1 802.1C588.5 801.8 587 802.2 585.7 803.3C584.7 804.1 583.6 805.1 582.4 806.4C581.1 807.7 579.8 809.1 578.4 810.5C577 812 575.6 813.4 574.2 814.9C572.8 816.3 571.4 817.6 570.2 818.7C569.5 819.2 568.8 819.8 568.1 820.3C567.3 820.9 566.4 821.2 565.4 821.2C564.5 821.3 563.4 821 562.2 820.3C561.1 819.6 559.8 818.3 558.4 816.4Z" fill="#085FFC"/><path d="M491.8 845.2C490.8 842.7 490.4 840 490.4 837.1C490.5 834.3 490.8 831.6 491.5 829.1C492.2 826.6 493.1 824.5 494.2 822.7C495.4 820.9 496.5 819.7 497.8 819C499.3 818.2 501 818 502.7 818.4C504.5 818.8 506.4 819.6 508.3 820.8C510.3 822 512.3 823.5 514.3 825.3C516.4 827.1 518.5 829.1 520.5 831.1C522.8 833.4 525 835.8 527.2 838.1C529.4 840.5 531.4 842.6 533.2 844.5C535 846.5 536.6 848 537.8 849.1C539 850.2 539.8 850.7 540.2 850.5C540.5 850.3 540.7 850 540.6 849.6C540.5 849.1 540.3 848.4 539.8 847.3C538.7 844.6 537.4 842.2 535.9 840.1C534.5 837.9 533.1 835.8 531.7 833.9C530.4 831.9 529 829.9 527.7 827.9C526.4 826 525.3 823.8 524.3 821.6C523.7 820 523.3 818.2 523.4 816.3C523.4 814.3 523.7 812.4 524.5 810.4C525.2 808.4 526.4 806.5 528 804.6C529.6 802.8 531.7 801.2 534.3 799.8C535.6 799.2 537 799.1 538.5 799.7C540.1 800.2 541.8 801.6 543.7 803.9C545.7 806.1 547.8 809.4 550.3 813.7C552.7 818 555.5 823.6 558.6 830.6C560.5 834.9 562.2 839.2 563.6 843.6C565 847.9 566.2 851.9 567.1 855.7C568.1 859.5 568.8 862.9 569.2 866C569.7 869 570 871.5 570 873.2C570.1 876.9 569.1 879.8 567.3 881.9C565.4 884 562.9 885.8 559.9 887.4C558.3 888.3 556.3 889.1 553.8 890.1C551.3 891 548.6 891.8 545.7 892.4C542.9 893 539.9 893.4 536.8 893.4C533.7 893.5 530.8 893.1 527.9 892.3C525 891.5 522.4 890.1 520.1 888.1C517.7 886.1 515.8 883.3 514.2 879.7C513 876.8 512.4 874.1 512.4 871.6C512.4 869.1 512.7 866.8 513.3 864.8C514 862.7 514.9 860.9 516 859.3C517.2 857.6 518.2 856.2 519.3 855.1C520.3 854 521.2 853.1 521.9 852.4C522.7 851.8 523 851.3 522.9 851.1C522.6 850.3 521.7 849.9 520.2 849.9C518.8 849.9 517 850 515 850.2C513 850.4 510.7 850.6 508.4 850.9C506 851.1 503.7 851.2 501.5 851C499.3 850.9 497.3 850.4 495.6 849.5C493.8 848.6 492.5 847.2 491.8 845.2H491.8ZM536.5 877.6C537.1 878.8 537.7 879.7 538.6 880.3C539.4 880.9 540.3 881.3 541.3 881.4C542.4 881.6 543.3 881.6 544.3 881.4C545.2 881.3 546.1 881 546.8 880.6C548.6 879.6 549.7 878.5 550 877.1C550.3 875.7 550.1 874.2 549.4 872.6C548.7 871 547.5 869.7 545.8 868.8C544.2 867.9 542.2 868.1 540 869.2C537.9 870.4 536.6 871.8 536.2 873.3C535.8 874.8 535.9 876.2 536.5 877.6L536.5 877.6Z" fill="#085FFC"/><path d="M428.1 902.8C427.3 897.5 427 891.5 427.1 884.7C427.2 877.6 427.9 870.2 429.1 863.3C430.2 856 431.9 848.5 434 841.4C436.1 834.3 438.8 827.7 441.9 821.9C445 816 448.6 811.2 452.7 807.5C456.7 803.6 461.4 801.4 466.5 800.5C468.8 800.1 470.8 800.6 472.6 802C474.3 803.5 475.5 805.8 476 808.9C476.4 811.3 476 813.4 474.8 815.4C473.7 817.3 472.2 818.4 470.4 818.8C468.8 819 467.2 819.1 465.7 819C464.1 818.9 462.6 819 461.2 819.3C460.5 819.4 459.6 819.8 458.4 820.4C457.3 821 456.1 821.8 454.9 822.6C453.8 823.5 452.8 824.5 452 825.6C451.3 826.7 450.9 827.7 451.1 828.8C451.2 829.5 451.6 830.1 452.3 830.4C454.6 831.6 456.9 832.9 459 834.3C461.1 835.7 463.3 837.3 465.5 839.2C469.1 842.2 472.8 846.1 476.6 850.8C480.4 855.4 484 860.4 487.3 865.8C490.6 871.1 493.5 876.6 496 882.2C498.5 887.8 500.3 893.2 501.2 898.4C501.6 900.5 501.9 902.5 502.1 904.4C502.3 906.3 502.1 908 501.7 909.5C501.3 911 500.5 912.4 499.3 913.4C498.1 914.5 496.5 915.2 494.3 915.7C491.4 916.2 488.5 916.4 485.7 916C482.9 915.7 480.3 914.9 478 913.6C475.7 912.3 473.7 910.5 472 908.1C470.4 905.8 469.2 902.9 468.6 899.3C468.3 897.6 468.1 895.9 468 894.2C467.9 892.4 467.8 890.7 467.5 888.9C467.1 886.5 466.3 884 465.1 881.5C464 879 462.6 876.7 460.8 874.7C459.1 872.7 457.2 871.1 455.1 870.1C453 869 450.7 868.7 448.5 869.2C446.9 869.5 445.7 870.4 444.8 871.8C443.8 873.1 443.2 874.7 442.8 876.5C442.3 878.3 442.1 880.2 442.1 882.2C442.1 884.2 442.2 885.9 442.4 887.4C442.8 890.1 443.5 892.7 444.5 895.2C445.5 897.7 446.5 900.1 447.5 902.5C448.6 904.9 449.6 907.2 450.6 909.5C451.6 911.8 452.3 914 452.7 916.2C453.2 919 452.8 921.1 451.5 922.4C450.3 923.7 448.4 924.6 445.9 925.1C443 925.7 440.5 925.3 438.4 924C436.4 922.7 434.6 921 433.2 918.7C431.8 916.5 430.7 913.9 430 911C429.2 908.1 428.6 905.4 428.2 902.8L428.1 902.8Z" fill="#085FFC"/><path d="M347.9 911.6C348 910.3 348.3 909.1 348.7 907.9C349.2 906.7 349.8 905.7 350.6 904.7C351.3 903.7 352.3 903 353.3 902.4C354.4 901.9 355.6 901.6 357 901.7C359 901.8 360.9 902.3 362.6 903.1C364.3 903.9 365.9 904.7 367.3 905.6C368.7 906.5 369.9 907.3 370.9 908.1C371.9 908.8 372.6 909.2 373.1 909.3C373.4 909.3 373.7 908.9 373.9 908.2C374.1 907.5 374.3 906.5 374.5 905.3C374.7 904.1 374.9 902.8 375 901.2C375.1 899.7 375.3 898.1 375.4 896.5C375.7 891.7 375.6 887.4 375.2 883.7C374.9 880 374.4 876.6 373.9 873.5C373.3 870.3 372.8 867.4 372.4 864.7C372 862 371.9 859.1 372.1 856C372.3 852.9 373.2 850 374.7 847.4C376.1 844.9 377.9 842.7 380.1 840.9C382.3 839.2 384.6 837.8 387.2 837C389.8 836.1 392.3 835.8 394.7 835.9C395.9 836 397.1 836.8 398.2 838.2C399.2 839.7 400.1 842 400.7 845.1C401.4 848.3 401.8 852.4 401.9 857.5C402.1 862.6 401.9 868.9 401.5 876C401.2 881.2 400.6 886 399.8 890.5C399 894.9 398.2 898.7 397.5 901.9C396.7 905.1 396.1 907.6 395.7 909.5C395.3 911.3 395.3 912.2 395.7 912.2C397.4 912.3 399 912 400.3 911.2C401.7 910.5 402.9 909.7 404.2 908.7C405.4 907.8 406.6 906.9 407.7 906.1C408.9 905.4 410.2 905 411.8 905.1C413.1 905.2 414.2 905.5 415.1 906C415.9 906.6 416.6 907.2 417.1 908C417.6 908.7 417.9 909.5 418.1 910.3C418.2 911.2 418.3 912 418.2 912.7C418.1 914.8 417.4 916.6 416.3 918C415.1 919.5 413.6 920.6 411.8 921.4C409.9 922.2 407.7 922.9 405.1 923.6C402.5 924.3 399.8 924.9 396.9 925.4C394 925.8 391 926.2 387.9 926.4C384.7 926.6 381.7 926.7 378.9 926.5C373.2 926.2 368.3 925.6 364.3 924.8C360.3 924 357.1 923 354.6 921.8C352.2 920.6 350.4 919.1 349.3 917.4C348.2 915.7 347.8 913.8 347.9 911.6L347.9 911.6Z" fill="#085FFC"/><path d="M277.8 867.1C279.5 862.1 281.4 857.5 283.4 853.2C285.4 849 287.3 845.1 289.1 841.6C291 838.2 292.6 835.2 294.2 832.7C295.7 830.2 297 828.4 297.9 827.3C298.9 826.1 300 825 301.1 824.2C302.3 823.4 303.4 822.8 304.6 822.3C305.8 821.9 306.9 821.7 308 821.6C309 821.6 309.9 821.7 310.8 821.9C315 822.9 316.2 826.6 314.3 832.9C313.6 835.4 312.6 837.9 311.4 840.4C310.3 842.9 309.3 845.6 308.4 848.5C307.6 851 307.4 853.2 307.7 855C308.1 856.9 309.6 858.2 312.2 858.9C314.6 859.6 316.9 859.8 319 859.4C321.1 859 322.5 857.9 323.1 855.9C323.5 854.6 323.6 853.3 323.5 851.9C323.5 850.4 323.7 848.9 324.2 847.1C324.9 844.6 326.1 842.3 327.8 840.2C329.5 838.1 331.5 836.3 333.8 834.9C336.1 833.4 338.5 832.5 341.1 832C343.8 831.5 346.4 831.7 349.1 832.5C359.9 839 349 867.7 346.8 876.2C345.7 880.1 344.4 884.1 342.7 888.2C341.1 892.3 339.4 896.2 337.6 899.7C335.9 903.3 334.2 906.4 332.6 909C331 911.7 329.6 913.5 328.6 914.6C327.6 915.7 326.4 916.6 325.2 917.1C324 917.7 322.8 918.1 321.6 918.3C320.4 918.5 319.2 918.6 318.1 918.5C317 918.4 316.1 918.2 315.2 917.9C312.9 917.2 311.4 916 310.6 914.2C309.9 912.4 309.8 910.2 310.6 907.7C311.1 906.1 311.6 904.6 312.2 903.4C312.7 902 313.3 900.8 313.9 899.6C314.5 898.4 315.1 897.2 315.6 896C316.2 894.8 316.6 893.5 317 892.2C317.5 890.7 317.5 889.4 317.1 888.2C316.6 887.1 315.9 886.1 315 885.3C314.1 884.4 313 883.7 311.8 883.1C310.5 882.6 309.3 882.1 308.1 881.8C304.4 880.6 302.2 881.1 301.5 883.3C301.2 884.4 301 885.8 301.1 887.3C301.2 888.9 300.9 891 300 893.6C298.9 897 297.3 899.5 295.1 901.3C292.8 903.1 290.4 904.3 287.8 905C285.2 905.8 282.7 906.1 280.2 906C277.8 906 275.9 905.7 274.5 905.3C272.5 904.7 271.3 903.3 270.7 900.9C270.1 898.6 270.1 895.7 270.6 892.2C271.2 888.6 272.1 884.7 273.4 880.4C274.7 876 276.2 871.6 277.8 867.1V867.1Z" fill="#085FFC"/><path d="M260.4 820.5C261.8 817.9 263.6 815.9 265.7 814.3C267.8 812.8 270.1 811.6 272.4 810.9C274.8 810.1 277.2 809.8 279.5 809.9C281.9 810.1 284.1 810.6 286.1 811.6C288.8 813 289.2 817.2 287.1 824.1C284.1 833.8 279.4 842.9 274.8 852C273.1 855 271.2 858.1 268.9 861.4C266.7 864.7 264.3 867.8 262 870.8C259.6 873.7 257.3 876.3 255.1 878.7C252.8 881 251 882.7 249.5 883.8C247.2 885.5 244.8 886.2 242.2 886.1C239.5 886 237.2 885.4 235.1 884.2C233 883 231.9 881.4 231.9 879.5C231.8 877.6 232.4 875.5 233.9 873.1C235.2 871 237.1 868.4 239.6 865.2C242.1 862.1 245 857.9 248.1 852.6C250 849.3 251.5 846.3 252.5 843.4C253.5 840.6 254.4 837.8 255.1 835.2C255.9 832.6 256.7 830.1 257.4 827.6C258.1 825.2 259.1 822.8 260.4 820.5L260.4 820.5Z" fill="#085FFC"/><path d="M181.8 795.3C184.7 792 187.8 788.9 190.9 786.1C194.1 783.4 197 780.9 199.8 778.7C202.6 776.5 205.2 774.7 207.6 773.1C210 771.6 211.8 770.5 213.2 769.9C215.8 768.6 218.3 768.3 220.9 768.8C223.4 769.4 225.7 770.4 227.8 772.1C229.3 773.3 230.2 774.8 230.6 776.6C230.9 778.4 230.4 780 229.2 781.4C228.1 782.7 226.7 784 225 785.4C223.2 786.7 221.7 788.2 220.4 789.7C218 792.4 216.2 795.3 215 798.4C213.8 801.5 212.9 804.5 212.5 807.6C212 810.7 211.8 813.7 212 816.5C212.1 819.4 212.4 821.9 212.8 824.2C213.3 826.5 213.7 828.4 214.2 829.8C214.7 831.2 215.1 832.1 215.5 832.4C216 832.9 216.6 833 217.1 832.7C217.6 832.4 218.2 831.9 218.9 831.1C220.1 829.8 221.3 827.8 222.4 825.3C223.6 822.8 224.8 820.1 226 817.3C227.2 814.4 228.5 811.6 229.9 808.8C231.2 806 232.7 803.7 234.2 801.9C235.6 800.2 237.4 798.8 239.5 797.7C241.6 796.6 243.9 795.9 246.2 795.6C248.6 795.3 251 795.4 253.5 796C256 796.6 258.3 797.8 260.5 799.6C262.8 801.6 262.6 805.6 259.7 811.6C255.4 820.2 249.4 827.8 243.4 835.3C240.5 838.8 237.5 842 234.2 845C230.9 848 227.8 850.6 224.8 853C221.8 855.2 219.1 857.1 216.8 858.6C214.5 860.1 212.9 861 212 861.4C210.3 862 208.8 862.4 207.4 862.5C206.1 862.6 204.9 862.5 203.8 862.2C202.7 862 201.8 861.6 201.1 861.2C200.3 860.7 199.8 860.3 199.4 860C198.7 859.4 198.1 858.6 197.5 857.6C196.9 856.7 196.4 855.5 196.1 854.2C195.8 852.9 195.7 851.2 195.9 849.3C196 847.4 196.4 845.2 197.1 842.7C199.1 835.4 200.5 829.3 201.4 824.5C202.3 819.6 201.8 816.4 200 814.9C199.6 814.6 199.2 814.8 198.8 815.7C198.4 816.6 197.9 817.8 197.4 819.3C196.8 820.8 196.1 822.5 195.2 824.3C194.3 826.1 193.2 827.8 191.8 829.4C190.3 831 188.5 832.2 186.1 833.1C183.8 833.9 181.4 834.4 178.8 834.5C176.2 834.6 173.6 834.2 171 833.5C168.5 832.7 166.1 831.5 164 829.9C162.3 828.6 161.8 826.6 162.4 824C163 821.4 164.3 818.5 166.3 815.2C168.2 812 170.6 808.6 173.5 805.1C176.3 801.7 179.1 798.4 181.8 795.3L181.8 795.3Z" fill="#085FFC"/><path d="M153.8 716.6C157.8 714.5 161.4 713 164.5 712C167.6 711.1 170.3 710.8 172.6 711.1C174.4 711.4 176.3 711.8 178.3 712.5C180.3 713.1 182.3 714 184.3 715.2C186.3 716.5 188.2 718 189.9 720C191.7 721.9 193.2 724.2 194.5 726.9C196.1 730.3 197.1 734.4 197.8 739C198.4 743.7 198 748.6 197.1 753.7C196.1 758.9 194.3 764.1 191.7 769.4C188.7 775.2 182.7 781 177.2 784.5C172.6 787.7 168.1 790.1 163.7 791.6C159.3 793 155.1 793.8 151.1 793.9C147.1 794 143.3 793.5 139.6 792.5C136 791.5 132.6 790.2 129.5 788.5C126.3 786.8 123.5 784.9 120.9 782.7C118.3 780.5 116 778.3 114.1 776.1C111.3 772.9 109.2 769.9 107.7 767.2C106.3 764.5 105.5 762.1 105.3 759.9C105.1 757.8 105.4 755.9 106.2 754.4C107 752.9 108.1 751.6 109.5 750.7C111.4 749.4 113.4 748.9 115.3 749C117.2 749.2 118.9 750.2 120.3 751.9C121.6 753.5 122.3 755.1 122.2 756.5C122.2 758 122.1 759.5 122 760.9C121.8 762.4 121.8 764 122.1 765.7C122.3 767.4 123.4 769.3 125.3 771.5C127.4 773.8 129.6 775.5 132 776.6C134.3 777.7 136.7 778.2 139.2 778.2C141.7 778.3 144.1 777.8 146.5 777C149 776.1 151.3 774.9 153.4 773.4C159.1 769.5 162.1 765 163.2 760C164.3 754.9 163.4 750 160 745.1C159.3 744.1 158.5 743.5 157.6 743.5C156.7 743.5 155.8 743.8 154.9 744.3C153.7 745 152.7 745.7 151.9 746.3C151.2 747 150.5 747.6 149.9 748.2C149.3 748.9 148.7 749.5 148.1 750.1C147.6 750.6 146.9 751.2 146.1 751.7C145.2 752.2 144.3 752.6 143.3 752.9C142.3 753.2 141.3 753.3 140.3 753.2C139.3 753.1 138.2 752.7 137.1 752C136 751.4 134.8 750.3 133.7 748.9C131.6 746.2 130.2 743.5 129.5 740.9C128.7 738.3 129.3 735.5 131.4 732.6C131.9 731.9 132.9 730.8 134.6 729.4C136.3 728 138.2 726.5 140.4 724.9C142.6 723.3 144.9 721.8 147.3 720.3C149.7 718.8 151.9 717.5 153.8 716.6L153.8 716.6Z" fill="#085FFC"/><path d="M139.5 648.8C143.6 647.9 147.5 647.6 151.4 648C155.2 648.4 158.7 649.3 161.8 650.5C164.9 651.8 167.5 653.5 169.5 655.5C171.5 657.5 172.8 659.8 173.4 662.1C174.2 665.4 169.8 668.8 160.7 672.4C148.2 677.4 135.1 680.8 122.2 684.2C118 685.3 113.4 686.3 108.5 687.2C103.6 688.1 98.9 688.8 94.3 689.4C89.8 690 85.7 690.4 81.9 690.7C78.2 690.9 75.3 691 73.2 690.8C70.1 690.5 67.5 689.4 65.4 687.5C63.3 685.6 61.8 683.5 60.9 681.2C60 678.8 60.1 676.9 61.4 675.3C62.6 673.8 64.7 672.6 67.6 671.7C70.3 670.9 73.9 670.1 78.7 669.4C83.4 668.7 89.5 667.3 97 665.3C101.6 664.1 105.8 662.7 109.3 661.2C112.9 659.7 116.4 658.1 119.6 656.6C122.8 655.1 126 653.7 129.2 652.2C132.4 650.8 135.8 649.7 139.5 648.8L139.5 648.8Z" fill="#085FFC"/><path d="M108.9 585.5C115.3 584.8 121.2 585 126.6 585.8C132 586.7 136.8 588.2 141 590.2C145.2 592.3 148.7 594.9 151.5 598C154.3 601.2 156.3 604.7 157.6 608.7C159 613.3 158.9 617.9 157.2 622.3C155.5 626.8 152.5 630.8 148.4 634.4C144.3 638 139.4 641.1 133.8 643.6C128.2 646.1 122.2 647.7 116 648.6C112.2 649.1 109.5 648.9 107.7 648C105.9 647.2 105 646.3 104.8 645.3C104.6 644.2 105.1 642.8 106.4 641.1C107.7 639.4 109.1 637.4 110.7 635.2C112.2 633 113.5 630.6 114.6 628C115.6 625.4 115.7 622.6 114.9 619.5C114.4 618.1 113.5 617.1 112 616.5C110.4 615.9 108.9 615.8 107.4 616C106.3 616.1 105.2 616.4 104.3 616.9C103.4 617.4 102.8 618.1 102.5 619.1C101.2 622.5 99.9 625.9 98.4 629C97 632.2 95.1 635.1 92.8 637.6C90.5 640.2 87.7 642.4 84.4 644.2C81.2 646 77.2 647.2 72.6 647.9C68.8 648.4 65.5 648.3 62.4 647.5C59.4 646.8 56.8 645.5 54.6 643.8C52.4 642 50.6 639.7 49.2 637C47.7 634.3 46.7 631.2 46.1 627.8C45.5 624 45.3 620.7 45.5 617.8C45.7 614.9 46.2 612.4 47 610.4C47.8 608.4 48.9 606.8 50.2 605.7C51.5 604.6 52.9 603.9 54.5 603.6C56.3 603.3 58.1 603.6 60.2 604.4C62.2 605.2 63.6 607 64.1 609.8C64.5 612 64.3 613.7 63.4 615C62.5 616.2 61.6 617.4 60.5 618.5C59.4 619.5 58.5 620.7 57.8 622C57 623.2 56.8 624.9 57.3 627C57.6 628.6 58.5 630 59.9 631.1C61.2 632.2 63.1 632.6 65.5 632.3C67.4 632 69 631.3 70.2 630.3C71.4 629.2 72.5 628 73.2 626.6C74 625.2 74.6 623.7 74.9 622C75.2 620.4 75.4 618.8 75.5 617.3C75.7 615.4 76.3 612.6 77.1 609.3C77.9 606 79.4 602.8 81.7 599.5C84 596.2 87.2 593.2 91.4 590.6C95.7 588 101.4 586.3 109 585.5L108.9 585.5Z" fill="#085FFC"/><path d="M63.9 481.4C65.3 481.7 66.7 482.2 67.9 482.9C69.2 483.6 70.3 484.5 71.2 485.5C72.1 486.6 72.8 487.8 73.2 489.2C73.6 490.5 73.7 492 73.3 493.6C73 495.3 72.3 496.7 71.3 497.9C70.3 499 69.2 500.1 68 501.2C66.8 502.2 65.7 503.3 64.8 504.4C63.8 505.5 63.1 506.8 62.7 508.3C62.6 509.2 62.5 510 62.5 510.9C62.5 511.7 62.9 512.5 63.8 513.1C64.7 513.7 65.8 514.3 67.2 514.9C68.7 515.5 70.1 516 71.5 516.4C73 516.7 74.2 517 75.3 517.1C76.3 517.3 76.9 517.2 76.9 516.9C77.2 515.7 77.2 514.1 77.1 512.1C77 510.1 77.1 508.3 77.4 506.9C78 503.9 79.2 502 81.1 501.2C83 500.4 85.1 500.2 87.5 500.8C89.2 501.3 90.7 502.1 91.9 503.4C93.1 504.7 93.5 506.5 93 508.8C92.8 510 92.3 511.3 91.5 512.7C90.6 514.1 90 516.3 89.4 519.1C89.3 519.4 89.8 519.6 90.7 519.8C91.7 520 92.9 520.1 94.4 520.1C95.9 520.2 97.4 520.2 99.1 520.3C100.8 520.3 102.4 520.3 103.8 520.3C105.2 520.3 106.9 520.4 108.8 520.5C110.7 520.6 112.6 520.7 114.5 520.8C116.4 520.9 118.3 521 120.2 521.2C122.1 521.5 123.8 521.8 125.4 522.1C127.9 522.6 130.6 523.7 133.4 525.2C136.1 526.8 138.6 528.5 140.7 530.5C142.9 532.5 144.6 534.7 145.9 537.1C147.1 539.4 147.6 541.8 147.2 544.1C146.7 547.1 141.5 548.4 131.8 548.1C118.8 547.8 105.8 545.9 93 543.9C88.3 543.1 83.5 542.1 78.6 540.8C73.6 539.5 69.2 538.1 65.1 536.8C61.1 535.4 57.7 534.1 54.8 532.8C52 531.4 50.1 530.4 49 529.5C47.7 528.4 46.8 526.9 46.3 525C45.7 523.1 45.4 521 45.3 518.7C45.2 516.4 45.3 513.9 45.5 511.4C45.8 508.8 46.2 506.2 46.6 503.8C48.1 494.7 50.3 488.4 53.3 485C56.3 481.6 59.8 480.4 63.9 481.4H63.9Z" fill="#085FFC"/><path d="M143.2 474.5C146.8 476 149.8 478 152.1 480.3C154.5 482.6 156.3 485.1 157.6 487.6C158.8 490.1 159.6 492.6 159.7 495.1C159.9 497.5 159.4 499.7 158.4 501.7C157.1 504.4 151.7 504.6 142.3 502.5C129.6 499.7 117.2 495.1 104.9 490.5C101 489 96.8 487.1 92.5 485C88.2 482.9 84.2 480.7 80.4 478.5C76.7 476.4 73.3 474.3 70.4 472.3C67.4 470.2 65.3 468.6 63.9 467.2C61.7 465.2 60.6 462.8 60.3 460.1C60 457.5 60.3 455 61.2 452.8C62.1 450.5 63.6 449.1 65.7 448.8C67.7 448.4 70.2 448.7 73.1 449.9C75.8 450.9 79.1 452.5 83.3 454.7C87.5 457 93 459.5 100 462.4C104.4 464.1 108.4 465.5 112.2 466.5C116 467.4 119.6 468.3 123.1 469C126.6 469.7 130 470.5 133.4 471.3C136.7 472 140 473.1 143.2 474.5H143.2Z" fill="#085FFC"/><path d="M146.6 384.7C151.3 387.4 155.9 390.4 160.4 393.6C164.8 396.8 169 399.9 172.7 402.9C176.5 405.9 179.9 408.7 182.8 411.4C185.8 414.1 188 416.2 189.5 417.8C192.3 420.8 194.1 423.8 194.8 426.9C195.5 430 195.4 432.9 194.5 435.4C193.8 437.3 192.5 438.4 190.4 438.9C188.4 439.3 186.2 438.8 183.8 437.4C181.7 436.2 179.3 434.6 176.9 432.6C174.4 430.6 172 428.9 169.5 427.4C165.2 424.9 160.9 423.1 156.7 421.9C152.6 420.8 148.6 420.2 144.7 419.9C140.9 419.7 137.3 419.8 134 420.3C130.7 420.7 127.7 421.3 125.2 422C122.6 422.7 120.6 423.4 119.1 424.1C117.5 424.8 116.6 425.4 116.3 425.8C115.9 426.4 116 427 116.5 427.6C117.1 428.1 117.9 428.7 119 429.3C121 430.5 123.7 431.6 127.2 432.6C130.6 433.6 134.3 434.7 138.3 435.9C142.2 437 146.2 438.3 150.2 439.6C154.2 441 157.7 442.5 160.6 444.2C163.3 445.8 165.7 447.8 167.9 450.3C170.2 452.7 171.9 455.4 173 458.2C174.2 461 174.7 463.8 174.5 466.7C174.4 469.6 173.3 472.3 171.2 474.7C169 477.3 163.5 476.9 155.1 473.7C143.1 469.1 131.9 462.6 120.8 456.3C115.8 453.4 111.1 450.3 106.6 447.1C102.1 443.9 98.1 440.8 94.6 438C91.2 435.1 88.3 432.6 86 430.4C83.8 428.2 82.3 426.7 81.6 425.8C80.6 424.2 79.9 422.7 79.4 421.3C79 419.9 78.8 418.7 78.9 417.5C78.9 416.4 79.1 415.4 79.4 414.6C79.7 413.7 80 413.1 80.3 412.7C80.8 411.9 81.6 411.1 82.5 410.3C83.4 409.6 84.5 408.9 85.9 408.4C87.4 407.8 89.1 407.5 91.3 407.4C93.4 407.2 96 407.3 99 407.6C106.3 408.4 113.7 409.3 121.1 409.7C126.9 410.1 130.5 409.2 131.6 406.9C131.8 406.5 131.3 406.1 130.2 405.8C129.1 405.5 127.6 405.1 125.6 404.7C123.7 404.3 121.6 403.8 119.2 403.1C116.9 402.4 114.6 401.4 112.5 400.2C110.2 398.9 108.3 397.1 106.6 394.8C105 392.5 103.8 390.1 103 387.4C102.2 384.8 101.8 382.1 101.9 379.4C102 376.6 102.7 374 103.9 371.6C104.8 369.7 106.7 368.8 109.6 368.9C112.5 369.1 115.9 369.9 119.9 371.4C123.9 372.9 128.2 374.8 132.9 377.3C137.6 379.7 142.2 382.2 146.6 384.8L146.6 384.7Z" fill="#085FFC"/><path d="M204 338.5C206.3 340.5 208.4 343.3 210.4 346.9C212.4 350.6 213.9 355.1 215 360.3C216.1 365.6 216.5 371.6 216.2 378.1C215.9 384.9 213.8 392.9 210.7 399C209.2 401.9 207.4 404.2 205.3 405.7C203.1 407.2 200.4 407.4 197.2 406.2C193.9 405.1 189.1 402.5 183 398.5C175.8 393.7 169 388.2 162.3 382.7C158.6 379.7 155 376.3 151.3 372.6C147.6 368.9 144.3 365.3 141.4 361.8C138.4 358.4 135.9 355.2 133.8 352.3C131.7 349.3 130.2 347 129.5 345.4C128.7 343.5 128.5 341.4 128.9 339.3C129.4 337.2 130.1 335.1 131.2 332.9C132.3 330.7 133.5 328.6 135 326.7C136.5 324.7 137.9 322.9 139.1 321.3C144.8 314.2 150.2 309.8 154.8 307.9C159.5 306 163.3 306.3 166.3 309.1C167.3 310 168.1 311 168.8 312.1C169.4 313.1 169.8 314.3 170.1 315.6C170.3 316.9 170.2 318.2 169.8 319.6C169.5 321 168.8 322.5 167.7 324C166.7 325.4 165.4 326.4 163.7 327.1C162 327.9 160.2 328.6 158.5 329.3C156.7 330 155 330.9 153.4 331.9C151.8 333 150.6 334.6 149.9 336.8C149.7 337.6 150 338.7 150.9 340.1C151.8 341.5 152.9 342.9 154.2 344.2C155.4 345.5 156.7 346.6 157.9 347.6C159.1 348.5 159.8 348.8 160 348.6C160.9 347.2 161.6 345.6 162 344C162.5 342.4 163.3 340.8 164.3 339.1C167.6 334.1 171.1 333.3 175.1 336.8C176.4 337.9 177.2 339.3 177.7 341.1C178.2 342.9 177.8 344.9 176.6 347C175.9 348.2 174.9 349.4 173.7 350.6C172.5 351.7 171.1 353.6 169.6 356.1C169.5 356.2 170 356.8 171.1 357.6C172.2 358.5 173.6 359.2 175.1 359.9C176.7 360.6 178.3 360.9 180 360.8C181.6 360.8 182.9 360 183.7 358.5C184.3 357.4 184.9 356.1 185.5 354.4C186.2 352.7 186.9 350.9 187.6 349C188.3 347.1 189.1 345.3 189.9 343.5C190.6 341.7 191.4 340.1 192.2 338.7C192.6 337.9 193.1 337.2 193.6 336.5C194.2 335.8 194.9 335.3 195.8 335C196.6 334.7 197.7 334.8 199.1 335.3C200.4 335.8 202 336.8 204 338.6L204 338.5Z" fill="#085FFC"/><path d="M367.2 589C380.9 589 392 557.4 392 518.4C392 479.4 380.9 447.8 367.2 447.8C353.5 447.8 342.4 479.4 342.4 518.4C342.4 557.4 353.5 589 367.2 589Z" fill="#085FFC"/><path d="M453.2 589C466.9 589 478 557.4 478 518.4C478 479.4 466.9 447.8 453.2 447.8C439.5 447.8 428.4 479.4 428.4 518.4C428.4 557.4 439.5 589 453.2 589Z" fill="#085FFC"/><path d="M412 705C383.6 705 356.5 696.1 333.7 679.1C311.4 662.6 295.1 639.9 286.7 613.5C285.3 609.1 287.7 604.5 292.1 603.1C296.4 601.7 301.1 604.1 302.5 608.4C317.8 656.3 361.8 688.4 412 688.4C462.3 688.4 506.3 656.3 521.6 608.4C523 604.1 527.6 601.7 532 603.1C536.4 604.5 538.8 609.1 537.4 613.5C529 639.9 512.7 662.6 490.4 679.1C467.6 696.1 440.5 705 412 705Z" fill="#085FFC"/></svg>