<svg width="145" height="32" viewBox="0 0 145 32" fill="none" xmlns="http://www.w3.org/2000/svg">
<path d="M29.6045 18.3355C30.195 13.0125 22.9427 10.0522 18.0058 12.1283C15.8744 13.0247 14.0604 14.5356 13.5482 16.9058C13.5251 17.0173 13.5044 17.1283 13.4859 17.2388C12.7869 21.406 10.0173 23.2724 6.95709 20.3588C5.9795 19.428 5.09189 18.6361 4.1731 18.6401C2.37056 18.6695 0.389802 20.6935 0.315414 22.5921C0.0137738 25.1822 6.31303 30.4329 11.3974 30.9323C15.0828 31.377 20.4649 29.3862 21.7775 26.5354C22.5324 24.7583 21.4263 21.9775 21.3458 20.31C21.263 18.5943 23.642 19.5906 24.9063 20.7534C26.7617 21.927 29.3342 20.1263 29.6045 18.3355Z" fill="white"/>
<path d="M139.501 18.0141L133.201 21.0141C130.401 20.2141 132.501 16.3141 131.101 15.3141C130.632 14.9795 129.738 14.8912 128.7 14.9331C124.882 15.0872 121.104 15.2763 117.301 14.9141C114.901 15.0141 111.001 16.4141 110.001 19.6141C105.901 23.9141 105.101 23.2141 103.601 19.2141C102.101 15.4141 98.7006 13.9141 93.9006 16.3141L97.8006 8.11413C99.9634 3.2855 99.6722 1.13857 98.7085 0.413582C96.8968 -0.949353 94.1991 1.35963 92.5721 2.93848C89.8112 5.61769 88.4122 10.732 85.2006 16.3141C83.4006 19.5141 80.8006 25.0141 81.5006 27.1141C82.5006 29.6141 86.0006 29.1141 89.0006 27.6141C91.5006 26.4141 93.2006 23.9141 96.6006 23.2141C101.901 22.1141 100.501 28.0141 104.801 29.3141C106.901 29.7141 108.001 29.3141 110.701 27.8141C115.901 31.2141 118.201 30.0141 123.801 27.8141C124.179 27.8141 124.634 27.8906 125.135 28.0065C128.365 28.7538 131.593 28.5748 134.587 27.15C135.414 26.756 136.258 26.3839 137.101 26.1141C138.701 25.3141 141.701 23.8141 142.801 22.9141C144.401 21.3141 146.601 17.2141 139.501 18.0141ZM118.001 23.6141C116.001 23.5141 115.101 20.1141 117.001 20.1141L120.89 20.3086C122.48 20.3881 122.578 22.7001 121.001 22.9141L118.001 23.6141Z" fill="white"/>
<path d="M79.7006 11.0145C76.8005 10.4145 69.6006 11.6145 68.9006 16.7145C68.5006 19.7145 70.1006 23.1145 67.0006 23.2145C65.9307 23.2145 64.8947 22.6727 63.9832 21.9793C61.959 20.4393 60.1581 17.3592 57.7006 18.0145C55.2006 18.8145 52.2006 20.9145 50.0006 21.3145C48.0006 19.9145 49.0006 15.5145 48.4006 14.5145C46.0006 13.4145 43.1006 14.4145 40.6006 14.9145C37.6006 14.7145 35.9006 13.7145 33.4006 14.2145C29.6006 15.0145 26.7006 18.2145 26.5006 23.0145C26.3006 27.8145 30.2006 29.4145 33.4006 29.5145C35.9006 29.5145 39.1006 26.8145 41.4006 27.6145C46.0006 29.4145 47.4006 29.5145 49.7006 27.8145L56.4006 25.2145C59.1006 26.8145 61.8006 30.8145 68.0006 31.2145C71.6006 31.4145 76.4006 29.4145 76.9006 26.7145C78.8006 23.8145 75.1006 18.0145 78.6006 18.8145L80.9006 20.5145C82.7006 21.3145 84.6006 19.4145 84.6006 17.4145C84.9006 14.8145 81.4006 11.4145 79.7006 11.0145ZM36.6761 23.3262C35.8329 23.723 34.8433 23.2087 34.6834 22.2907C34.6297 21.982 34.6801 21.6643 34.8268 21.3874L34.9269 21.1983C35.2801 20.5315 35.9729 20.1145 36.7274 20.1145H40.001C40.8367 20.1145 41.0903 21.249 40.3341 21.6048L36.6761 23.3262Z" fill="white"/>
</svg>
